G04*
G04 #@! TF.GenerationSoftware,Altium Limited,Altium Designer,26.1.1 (7)*
G04*
G04 Layer_Physical_Order=1*
G04 Layer_Color=255*
%FSLAX44Y44*%
%MOMM*%
G71*
G04*
G04 #@! TF.SameCoordinates,F0D65C84-A3F1-487F-912E-D9069717FDA7*
G04*
G04*
G04 #@! TF.FilePolarity,Positive*
G04*
G01*
G75*
%ADD11C,0.1524*%
%ADD16R,0.5400X0.6000*%
G04:AMPARAMS|DCode=17|XSize=0.8397mm|YSize=0.2425mm|CornerRadius=0.1212mm|HoleSize=0mm|Usage=FLASHONLY|Rotation=270.000|XOffset=0mm|YOffset=0mm|HoleType=Round|Shape=RoundedRectangle|*
%AMROUNDEDRECTD17*
21,1,0.8397,0.0000,0,0,270.0*
21,1,0.5972,0.2425,0,0,270.0*
1,1,0.2425,0.0000,-0.2986*
1,1,0.2425,0.0000,0.2986*
1,1,0.2425,0.0000,0.2986*
1,1,0.2425,0.0000,-0.2986*
%
%ADD17ROUNDEDRECTD17*%
G04:AMPARAMS|DCode=18|XSize=0.6mm|YSize=0.54mm|CornerRadius=0.1431mm|HoleSize=0mm|Usage=FLASHONLY|Rotation=270.000|XOffset=0mm|YOffset=0mm|HoleType=Round|Shape=RoundedRectangle|*
%AMROUNDEDRECTD18*
21,1,0.6000,0.2538,0,0,270.0*
21,1,0.3138,0.5400,0,0,270.0*
1,1,0.2862,-0.1269,-0.1569*
1,1,0.2862,-0.1269,0.1569*
1,1,0.2862,0.1269,0.1569*
1,1,0.2862,0.1269,-0.1569*
%
%ADD18ROUNDEDRECTD18*%
G04:AMPARAMS|DCode=19|XSize=0.9mm|YSize=1.75mm|CornerRadius=0.0495mm|HoleSize=0mm|Usage=FLASHONLY|Rotation=90.000|XOffset=0mm|YOffset=0mm|HoleType=Round|Shape=RoundedRectangle|*
%AMROUNDEDRECTD19*
21,1,0.9000,1.6510,0,0,90.0*
21,1,0.8010,1.7500,0,0,90.0*
1,1,0.0990,0.8255,0.4005*
1,1,0.0990,0.8255,-0.4005*
1,1,0.0990,-0.8255,-0.4005*
1,1,0.0990,-0.8255,0.4005*
%
%ADD19ROUNDEDRECTD19*%
G04:AMPARAMS|DCode=20|XSize=0.6mm|YSize=0.54mm|CornerRadius=0.1431mm|HoleSize=0mm|Usage=FLASHONLY|Rotation=180.000|XOffset=0mm|YOffset=0mm|HoleType=Round|Shape=RoundedRectangle|*
%AMROUNDEDRECTD20*
21,1,0.6000,0.2538,0,0,180.0*
21,1,0.3138,0.5400,0,0,180.0*
1,1,0.2862,-0.1569,0.1269*
1,1,0.2862,0.1569,0.1269*
1,1,0.2862,0.1569,-0.1269*
1,1,0.2862,-0.1569,-0.1269*
%
%ADD20ROUNDEDRECTD20*%
G04:AMPARAMS|DCode=21|XSize=0.2425mm|YSize=0.8397mm|CornerRadius=0.1212mm|HoleSize=0mm|Usage=FLASHONLY|Rotation=270.000|XOffset=0mm|YOffset=0mm|HoleType=Round|Shape=RoundedRectangle|*
%AMROUNDEDRECTD21*
21,1,0.2425,0.5972,0,0,270.0*
21,1,0.0000,0.8397,0,0,270.0*
1,1,0.2425,-0.2986,0.0000*
1,1,0.2425,-0.2986,0.0000*
1,1,0.2425,0.2986,0.0000*
1,1,0.2425,0.2986,0.0000*
%
%ADD21ROUNDEDRECTD21*%
%ADD22R,1.1500X0.3000*%
%ADD23R,0.6000X0.3500*%
%ADD24R,0.8000X0.8000*%
%ADD25R,0.8000X0.4000*%
%ADD26R,0.4000X0.8000*%
%ADD27R,1.5500X1.3000*%
%ADD28R,1.2000X1.2000*%
%ADD29R,0.7000X0.6000*%
%ADD30R,0.6000X0.5400*%
%ADD31R,1.1500X0.6000*%
%ADD32R,0.3500X0.6000*%
G04:AMPARAMS|DCode=33|XSize=3.2mm|YSize=1.75mm|CornerRadius=0.0525mm|HoleSize=0mm|Usage=FLASHONLY|Rotation=90.000|XOffset=0mm|YOffset=0mm|HoleType=Round|Shape=RoundedRectangle|*
%AMROUNDEDRECTD33*
21,1,3.2000,1.6450,0,0,90.0*
21,1,3.0950,1.7500,0,0,90.0*
1,1,0.1050,0.8225,1.5475*
1,1,0.1050,0.8225,-1.5475*
1,1,0.1050,-0.8225,-1.5475*
1,1,0.1050,-0.8225,1.5475*
%
%ADD33ROUNDEDRECTD33*%
G04:AMPARAMS|DCode=34|XSize=1.3571mm|YSize=0.5721mm|CornerRadius=0.2861mm|HoleSize=0mm|Usage=FLASHONLY|Rotation=0.000|XOffset=0mm|YOffset=0mm|HoleType=Round|Shape=RoundedRectangle|*
%AMROUNDEDRECTD34*
21,1,1.3571,0.0000,0,0,0.0*
21,1,0.7850,0.5721,0,0,0.0*
1,1,0.5721,0.3925,0.0000*
1,1,0.5721,-0.3925,0.0000*
1,1,0.5721,-0.3925,0.0000*
1,1,0.5721,0.3925,0.0000*
%
%ADD34ROUNDEDRECTD34*%
%ADD35R,1.3571X0.5721*%
%ADD36R,0.2425X0.8397*%
%ADD47R,2.0500X2.0500*%
G04:AMPARAMS|DCode=54|XSize=1mm|YSize=1.8mm|CornerRadius=0.5mm|HoleSize=0mm|Usage=FLASHONLY|Rotation=270.000|XOffset=0mm|YOffset=0mm|HoleType=Round|Shape=RoundedRectangle|*
%AMROUNDEDRECTD54*
21,1,1.0000,0.8000,0,0,270.0*
21,1,0.0000,1.8000,0,0,270.0*
1,1,1.0000,-0.4000,0.0000*
1,1,1.0000,-0.4000,0.0000*
1,1,1.0000,0.4000,0.0000*
1,1,1.0000,0.4000,0.0000*
%
%ADD54ROUNDEDRECTD54*%
G04:AMPARAMS|DCode=55|XSize=1mm|YSize=2.2mm|CornerRadius=0.5mm|HoleSize=0mm|Usage=FLASHONLY|Rotation=270.000|XOffset=0mm|YOffset=0mm|HoleType=Round|Shape=RoundedRectangle|*
%AMROUNDEDRECTD55*
21,1,1.0000,1.2000,0,0,270.0*
21,1,0.0000,2.2000,0,0,270.0*
1,1,1.0000,-0.6000,0.0000*
1,1,1.0000,-0.6000,0.0000*
1,1,1.0000,0.6000,0.0000*
1,1,1.0000,0.6000,0.0000*
%
%ADD55ROUNDEDRECTD55*%
%ADD58R,0.4000X0.4000*%
%ADD59C,0.3810*%
%ADD60C,0.2542*%
%ADD61C,0.1582*%
%ADD62C,0.5080*%
%ADD63C,0.3048*%
%ADD64C,0.1633*%
%ADD65C,1.6256*%
%ADD66C,1.0160*%
%ADD67R,1.6256X1.6256*%
%ADD68R,1.0160X1.0160*%
%ADD69R,1.0160X1.0160*%
%ADD70C,0.6096*%
G36*
X647568Y225938D02*
Y211074D01*
X628010D01*
Y216854D01*
X629087Y217932D01*
X629920Y217932D01*
X631566Y219578D01*
X631566Y223359D01*
X631698Y223678D01*
Y225440D01*
X633080Y226822D01*
X639636D01*
X640520Y227706D01*
X645800D01*
X647568Y225938D01*
D02*
G37*
G36*
X227183Y213484D02*
X226314Y212598D01*
X226314D01*
X226314Y212598D01*
X225972Y209851D01*
X227838Y208857D01*
Y203057D01*
X223171D01*
X220834Y204314D01*
X219817Y204303D01*
X219334Y204626D01*
X218045Y204883D01*
X205740D01*
X204452Y204626D01*
X203727Y204142D01*
X201489Y204120D01*
X200406Y205192D01*
Y213412D01*
X202967Y214889D01*
X204510D01*
X205758Y216136D01*
X208421Y219202D01*
X227076D01*
X227183Y213484D01*
D02*
G37*
G36*
X141986Y172974D02*
X142748Y172212D01*
X164084Y172212D01*
Y170434D01*
X166051Y168467D01*
Y165354D01*
X165862D01*
X164084Y163576D01*
X161290D01*
X157988Y166878D01*
X154940D01*
Y166624D01*
X150622Y162306D01*
Y151130D01*
X150670Y151082D01*
Y148940D01*
X152812D01*
X153416Y148336D01*
X159766D01*
Y142860D01*
X159522Y142494D01*
X152654D01*
X143764Y151384D01*
Y166116D01*
X138117D01*
X136866Y167640D01*
X136908Y167849D01*
Y170987D01*
X136816Y171450D01*
X138001Y172974D01*
X141986Y172974D01*
D02*
G37*
G36*
X113030Y134670D02*
X89408Y134670D01*
X88392Y135802D01*
Y166370D01*
X113030D01*
Y134670D01*
D02*
G37*
G36*
X640842Y94996D02*
X574040D01*
Y160528D01*
X640842D01*
Y94996D01*
D02*
G37*
G36*
X119888Y132080D02*
X147828Y104140D01*
X174498D01*
X176530Y102108D01*
Y90932D01*
X157734D01*
X155956Y92710D01*
Y95250D01*
X140462Y95250D01*
X113792Y121920D01*
X94983Y121920D01*
X94983D01*
X92977D01*
X92977D01*
X89154D01*
X86614Y124460D01*
Y129286D01*
X89408Y132080D01*
X119888Y132080D01*
D02*
G37*
G36*
X105968Y119330D02*
X112014Y113284D01*
Y96828D01*
X112012Y96819D01*
Y93681D01*
X112014Y93672D01*
Y91948D01*
X109728Y89662D01*
X93984D01*
X92480Y89710D01*
Y100790D01*
X92456D01*
Y105156D01*
X87376Y110236D01*
Y116332D01*
X90374Y119330D01*
X94983D01*
X105968Y119330D01*
D02*
G37*
G36*
X287767Y121105D02*
Y44143D01*
X206741D01*
X190739Y60145D01*
X155687D01*
X152131Y57084D01*
Y53287D01*
X148678Y49834D01*
X147628D01*
X147619Y49832D01*
X144481D01*
X144472Y49834D01*
X136198D01*
X136189Y49832D01*
X133051D01*
X131671Y50179D01*
Y50680D01*
X130898Y52547D01*
X130541Y52903D01*
Y56214D01*
X130757Y56735D01*
Y58756D01*
X130541Y59278D01*
Y62685D01*
X122667Y70559D01*
Y77925D01*
X137145Y92403D01*
X148321D01*
X153147Y87577D01*
X183047D01*
Y113538D01*
X238393D01*
X248143Y122375D01*
X287767D01*
Y121105D01*
D02*
G37*
G36*
X176276Y45974D02*
X163576Y33274D01*
X122682D01*
X120142Y35814D01*
Y38354D01*
X122242Y40455D01*
X122291Y40475D01*
X123863Y42047D01*
X123883Y42095D01*
X124206Y42418D01*
X126492D01*
X129414Y45340D01*
X129468Y45363D01*
X130898Y46792D01*
X130920Y46846D01*
X131318Y47244D01*
X133042D01*
X133051Y47242D01*
X136189D01*
X136198Y47244D01*
X144472D01*
X144481Y47242D01*
X147619D01*
X147628Y47244D01*
X156210D01*
Y55118D01*
X157226Y56134D01*
X176276D01*
Y45974D01*
D02*
G37*
D11*
X492000Y205740D02*
X498350Y212090D01*
X598170D01*
X492000Y191770D02*
Y205740D01*
X483920Y206300D02*
Y210133D01*
X490956Y217170D02*
X598170D01*
X483360Y205740D02*
X483920Y206300D01*
Y210133D02*
X490956Y217170D01*
X294601Y60999D02*
Y161950D01*
Y60999D02*
X314600Y41000D01*
X269746Y159510D02*
X275590Y165354D01*
X259080Y159510D02*
X269746D01*
X348340Y168000D02*
X395350D01*
X398292Y170942D02*
X473456D01*
X395350Y168000D02*
X398292Y170942D01*
X473456D02*
X483360Y180846D01*
Y191770D01*
X521462Y156972D02*
X525780Y161290D01*
X482854Y156972D02*
X521462D01*
X203796Y207010D02*
X225080D01*
X220923Y174152D02*
Y183771D01*
X209137Y195558D02*
X220923Y183771D01*
X199495Y195580D02*
X205718D01*
X205740Y195558D01*
X209137D01*
X218045Y201516D02*
X233379Y186182D01*
X202423Y200638D02*
X203302Y201516D01*
X205740D01*
X218045D01*
X220923Y174152D02*
X224435Y170640D01*
X204641Y190522D02*
X205740Y189424D01*
X213384Y181779D01*
X202423Y190522D02*
X204641D01*
X213384Y179750D02*
X214065Y179070D01*
X213384Y179750D02*
Y181779D01*
X199715Y185580D02*
X199772Y185522D01*
X205740Y176020D02*
X216200Y165560D01*
X199495Y185580D02*
X199715D01*
X199772Y181988D02*
X205740Y176020D01*
X216200Y165560D02*
X216500D01*
X199772Y181988D02*
Y185522D01*
X216500Y165560D02*
X217930Y164130D01*
Y149860D02*
Y164130D01*
X238712Y168150D02*
X259080D01*
X224435Y170640D02*
X236222D01*
X238712Y168150D01*
X204027Y211582D02*
X209615Y217170D01*
X224280D01*
X203708Y211582D02*
X204027D01*
X602996Y207264D02*
X634964D01*
X598170Y212090D02*
X602996Y207264D01*
X634964D02*
X641610Y200618D01*
X625344Y197748D02*
X625348Y197752D01*
X625344Y175264D02*
Y197748D01*
Y175264D02*
X625348Y175260D01*
X633658Y196818D02*
X633840Y197000D01*
X633658Y185348D02*
Y196818D01*
X633476Y185166D02*
X633658Y185348D01*
X452580Y51280D02*
X455704D01*
X450850Y53010D02*
X452580Y51280D01*
X460854Y46130D02*
X463390D01*
X455704Y51280D02*
X460854Y46130D01*
X463390D02*
X464820Y44700D01*
X231490Y217884D02*
Y222519D01*
X223012Y225806D02*
X228203D01*
X231490Y222519D01*
Y217884D02*
X232204Y217170D01*
X232920D01*
X454152Y151892D02*
X463042Y143002D01*
X534122D01*
X195373Y168910D02*
X208534Y155749D01*
X190786Y173496D02*
X195373Y168910D01*
X190340Y173554D02*
X190398Y173496D01*
X190786D01*
X190340Y173554D02*
Y176425D01*
X216576Y137244D02*
X217930Y135890D01*
X208534Y141986D02*
X213276Y137244D01*
X216576D01*
X208534Y141986D02*
Y155749D01*
X275590Y165354D02*
Y171450D01*
X270395Y208280D02*
X274320D01*
X265825Y203710D02*
X270395Y208280D01*
X257810Y203710D02*
X265825D01*
X502666Y79756D02*
X503628D01*
X507384Y76000D02*
X538340D01*
X503628Y79756D02*
X507384Y76000D01*
X190340Y218788D02*
X192868Y221316D01*
X190340Y214735D02*
Y218788D01*
X192868Y221316D02*
X198710D01*
X562817Y222250D02*
X571417Y230850D01*
X462280Y222250D02*
X562817D01*
X571417Y241217D02*
X571500Y241300D01*
X571417Y230850D02*
Y241217D01*
X449580Y192100D02*
X456522D01*
X458010Y193588D01*
Y198078D01*
X462390Y200310D02*
X464374Y202294D01*
X464966D01*
X460242Y200310D02*
X462390D01*
X458010Y198078D02*
X460242Y200310D01*
X529983Y39231D02*
X535569D01*
X499356Y62420D02*
X506794D01*
X529983Y39231D01*
X510583Y38817D02*
X511300Y38100D01*
X485394Y68580D02*
X510583Y43391D01*
Y38817D02*
Y43391D01*
X458533Y68580D02*
X485394D01*
X515692Y95758D02*
X521434Y101500D01*
X538340D01*
X496269Y95758D02*
X515692D01*
X527368Y186500D02*
X538340D01*
X505460Y180340D02*
X521208D01*
X527368Y186500D01*
X526742Y178000D02*
X538340D01*
X496570Y172720D02*
X521462D01*
X526742Y178000D01*
X526116Y169500D02*
X538340D01*
X511810Y165354D02*
X521970D01*
X526116Y169500D01*
X525780Y161290D02*
X538050D01*
X538340Y161000D01*
X524356Y152500D02*
X538340D01*
X521716Y149860D02*
X524356Y152500D01*
X477520Y149860D02*
X521716D01*
X168910Y154160D02*
X169418Y154668D01*
Y168910D02*
X170340Y169832D01*
Y176425D01*
X169418Y154668D02*
Y168910D01*
X168900Y154170D02*
X168910Y154160D01*
X156220Y154170D02*
X168900D01*
X156210Y154180D02*
X156220Y154170D01*
X415290Y147428D02*
X418338Y150476D01*
Y159766D01*
X415290Y111823D02*
Y147428D01*
Y111823D02*
X458533Y68580D01*
X426974Y151928D02*
Y161290D01*
X420370Y145324D02*
X426974Y151928D01*
X420370Y113927D02*
Y145324D01*
X198710Y221316D02*
X199390Y221996D01*
X89154Y219710D02*
X102110D01*
X73694Y204250D02*
X89154Y219710D01*
X62900Y204250D02*
X73694D01*
X107490Y214030D02*
Y214330D01*
Y214030D02*
X108920Y212600D01*
X109220D01*
X102110Y219710D02*
X107490Y214330D01*
X62900Y174250D02*
X104610D01*
X108920Y178560D01*
X109220D01*
X472948Y89408D02*
X484378Y100838D01*
X457200Y93980D02*
X461772Y89408D01*
X472948D01*
X441878Y99603D02*
Y102217D01*
X441198Y102897D02*
X441878Y102217D01*
Y99603D02*
X462741Y78740D01*
X420370Y113927D02*
X460637Y73660D01*
X436118Y151892D02*
X450088Y137922D01*
X534122D01*
X536340Y135500D02*
X538340D01*
X535610Y136230D02*
X536340Y135500D01*
X535610Y136230D02*
Y136434D01*
X534122Y137922D02*
X535610Y136434D01*
X108506Y35906D02*
X109174Y36574D01*
X104387Y31025D02*
X108506Y35144D01*
X75900Y44750D02*
X89625Y31025D01*
X108506Y35144D02*
Y35906D01*
X109174Y36574D02*
X109936D01*
X89625Y31025D02*
X104387D01*
X534122Y143002D02*
X534390Y143270D01*
X537610D01*
X538340Y144000D01*
X462741Y78740D02*
X490220D01*
X406910Y74002D02*
Y113790D01*
Y74002D02*
X419032Y61880D01*
X406400Y114300D02*
X406910Y113790D01*
X62900Y74750D02*
X73660D01*
X109910D02*
X110490Y74170D01*
X73660Y74750D02*
X109910D01*
X62900Y44750D02*
X75900D01*
X419032Y61880D02*
X421480D01*
X422910Y60450D01*
X424640Y58720D02*
X429720Y53640D01*
X425891Y41481D02*
X429720Y45310D01*
Y53640D01*
X424640Y58720D02*
Y59020D01*
X423210Y60450D02*
X424640Y59020D01*
X422910Y60450D02*
X423210D01*
X422910Y40150D02*
X424241Y41481D01*
X425891D01*
X420403Y41000D02*
X422081Y39321D01*
X395350Y41000D02*
X420403D01*
X315850D02*
X395350D01*
X314600D02*
X315850D01*
X330690Y150350D02*
X348340Y168000D01*
X314960Y150350D02*
X330690D01*
X314960D02*
Y167110D01*
X315850Y168000D01*
X316230Y168380D01*
Y186690D01*
X304140Y198780D02*
X316230Y186690D01*
X293331Y198780D02*
X304140D01*
X257810Y195070D02*
X258691Y195951D01*
X281008D01*
X275590Y152450D02*
X276826D01*
X278295Y153920D01*
Y159121D01*
X286186Y167011D01*
Y190773D01*
X281008Y195951D02*
X286186Y190773D01*
X248622Y186182D02*
X257510Y195070D01*
X233379Y186182D02*
X248622D01*
X257510Y195070D02*
X257810D01*
X273834Y188794D02*
X274320Y189280D01*
X263724Y188794D02*
X273834D01*
X259080Y184150D02*
X263724Y188794D01*
X259080Y168150D02*
Y184150D01*
X202366Y205580D02*
X203796Y207010D01*
X199495Y205580D02*
X202366D01*
X224280Y208109D02*
Y217170D01*
X641610Y197730D02*
X642340Y197000D01*
X641610Y197730D02*
Y200618D01*
X598170Y217170D02*
X622300Y241300D01*
X519940Y13460D02*
X520700Y12700D01*
X519940Y13460D02*
Y38100D01*
X545340Y13460D02*
X546100Y12700D01*
X545340Y13460D02*
Y38100D01*
X535569Y39231D02*
X536700Y38100D01*
X488116Y73660D02*
X499356Y62420D01*
X460637Y73660D02*
X488116D01*
X667745Y51282D02*
Y56905D01*
X622300Y12700D02*
Y27940D01*
X628650Y34290D02*
X650753D01*
X622300Y27940D02*
X628650Y34290D01*
X650753D02*
X667745Y51282D01*
X449580Y209550D02*
X462280Y222250D01*
X449580Y201600D02*
Y209550D01*
X528320Y92710D02*
X528610Y93000D01*
X538340D01*
X490220Y78740D02*
X501460Y67500D01*
X538340D01*
X484378Y100838D02*
X513588D01*
X522750Y110000D01*
X538340D01*
X491951Y91440D02*
X496269Y95758D01*
X485140Y91440D02*
X491951D01*
X510232Y88900D02*
X514632Y84500D01*
X499110Y88900D02*
X510232D01*
X514632Y84500D02*
X538340D01*
X596900Y12700D02*
X624840Y40640D01*
X648123D01*
X659245Y51762D01*
Y56905D01*
X548740Y196720D02*
X548930Y196910D01*
X548740Y185520D02*
Y196720D01*
X548640Y185420D02*
X548740Y185520D01*
Y57100D02*
X548840Y57000D01*
X548740Y57100D02*
Y83720D01*
X548640Y83820D02*
X548740Y83720D01*
X616640Y196800D02*
X616840Y197000D01*
X616640Y185620D02*
Y196800D01*
X582440Y185420D02*
X582640Y185620D01*
Y196800D02*
X582840Y197000D01*
X599640Y185620D02*
Y196800D01*
X565440Y185620D02*
X565840Y186020D01*
X599440Y185420D02*
X599640Y185620D01*
Y196800D02*
X599840Y197000D01*
X616440Y185420D02*
X616640Y185620D01*
X582640D02*
Y196800D01*
X565840Y186020D02*
Y199914D01*
X616730Y83820D02*
X616785Y83765D01*
Y57075D02*
Y83765D01*
X599785Y57075D02*
Y83765D01*
X633730Y83820D02*
X633785Y83765D01*
X582730Y83820D02*
X582785Y83765D01*
Y57075D02*
X582850Y57010D01*
X565785Y57075D02*
Y83765D01*
X565730Y83820D02*
X565785Y83765D01*
X599785Y57075D02*
X599850Y57010D01*
X633785Y57075D02*
Y83765D01*
X582785Y57075D02*
Y83765D01*
X616785Y57075D02*
X616850Y57010D01*
X599730Y83820D02*
X599785Y83765D01*
X565785Y57075D02*
X565850Y57010D01*
X633785Y57075D02*
X633850Y57010D01*
X625340Y57000D02*
Y70740D01*
X608340Y57000D02*
Y70740D01*
X591340Y57000D02*
Y70740D01*
X574340Y57000D02*
Y70740D01*
X557340Y57000D02*
Y70740D01*
X557435Y175355D02*
X557530Y175260D01*
X557435Y196905D02*
X557530Y197000D01*
X557435Y175355D02*
Y196905D01*
X574330Y175260D02*
Y197000D01*
X591330Y175260D02*
Y196990D01*
X608330Y175260D02*
Y196990D01*
X608340Y197000D01*
D16*
X173730Y132080D02*
D03*
X182370D02*
D03*
D03*
X140210Y200660D02*
D03*
X131570D02*
D03*
X226570Y149860D02*
D03*
Y135890D02*
D03*
X487170Y127508D02*
D03*
X495810D02*
D03*
X487174D02*
D03*
X487170Y110744D02*
D03*
X495810D02*
D03*
X487174D02*
D03*
X191010Y132080D02*
D03*
X232920Y216154D02*
D03*
X224280D02*
D03*
X132332Y187452D02*
D03*
X140972D02*
D03*
X217930Y135890D02*
D03*
Y163830D02*
D03*
X226570D02*
D03*
X217930Y149860D02*
D03*
X519940Y38100D02*
D03*
X511300D02*
D03*
X545340D02*
D03*
X536700D02*
D03*
X483360Y205740D02*
D03*
X492000D02*
D03*
X483360Y191770D02*
D03*
X492000D02*
D03*
X478534Y127508D02*
D03*
Y110744D02*
D03*
D17*
X175340Y176425D02*
D03*
X180340Y214735D02*
D03*
Y176425D02*
D03*
X190340D02*
D03*
X185340D02*
D03*
X170340D02*
D03*
Y214735D02*
D03*
X175340D02*
D03*
X185340D02*
D03*
D18*
X182390Y154940D02*
D03*
Y143510D02*
D03*
X140190Y212090D02*
D03*
X674080Y214630D02*
D03*
X653270D02*
D03*
X622590D02*
D03*
X664990Y36830D02*
D03*
X234170Y204470D02*
D03*
X131590Y212090D02*
D03*
X190990Y154940D02*
D03*
X131590Y169418D02*
D03*
X118600Y160782D02*
D03*
X190990Y143510D02*
D03*
X117330Y95250D02*
D03*
X631190Y214630D02*
D03*
X644670D02*
D03*
X665480D02*
D03*
X673590Y36830D02*
D03*
X110000Y160782D02*
D03*
X140190Y169418D02*
D03*
X225570Y204470D02*
D03*
X108730Y95250D02*
D03*
D19*
X166870Y96660D02*
D03*
Y73660D02*
D03*
Y50660D02*
D03*
D20*
X144780Y98280D02*
D03*
X314960Y141750D02*
D03*
X422910Y48750D02*
D03*
X168910Y145560D02*
D03*
X144780Y89680D02*
D03*
X146050Y52560D02*
D03*
X134620D02*
D03*
X422910Y40150D02*
D03*
X168910Y154160D02*
D03*
X134620Y43960D02*
D03*
X146050D02*
D03*
X314960Y150350D02*
D03*
D21*
X161185Y195580D02*
D03*
X199495Y200580D02*
D03*
Y205580D02*
D03*
Y195580D02*
D03*
Y190580D02*
D03*
Y185580D02*
D03*
X161185D02*
D03*
Y190580D02*
D03*
Y200580D02*
D03*
Y205580D02*
D03*
D22*
X62900Y194250D02*
D03*
Y184250D02*
D03*
Y209250D02*
D03*
Y204250D02*
D03*
Y199250D02*
D03*
Y189250D02*
D03*
Y179250D02*
D03*
Y174250D02*
D03*
Y79750D02*
D03*
Y74750D02*
D03*
Y69750D02*
D03*
Y64750D02*
D03*
Y59750D02*
D03*
Y54750D02*
D03*
Y49750D02*
D03*
Y44750D02*
D03*
D23*
X89408Y187400D02*
D03*
X88646Y208990D02*
D03*
X89408Y180900D02*
D03*
X90170Y65226D02*
D03*
Y41200D02*
D03*
X88646Y202490D02*
D03*
X90170Y47700D02*
D03*
Y58726D02*
D03*
D24*
X678340Y197000D02*
D03*
X538340D02*
D03*
X678340Y57000D02*
D03*
X538340D02*
D03*
D25*
X678340Y186500D02*
D03*
Y161000D02*
D03*
Y169500D02*
D03*
Y152500D02*
D03*
Y178000D02*
D03*
Y135500D02*
D03*
Y144000D02*
D03*
Y127000D02*
D03*
Y110000D02*
D03*
Y118500D02*
D03*
Y101500D02*
D03*
Y93000D02*
D03*
Y84500D02*
D03*
Y67500D02*
D03*
Y76000D02*
D03*
X538340Y127000D02*
D03*
Y118500D02*
D03*
Y67500D02*
D03*
Y76000D02*
D03*
Y84500D02*
D03*
Y93000D02*
D03*
Y101500D02*
D03*
Y110000D02*
D03*
Y135500D02*
D03*
Y144000D02*
D03*
Y152500D02*
D03*
Y161000D02*
D03*
Y169500D02*
D03*
Y178000D02*
D03*
Y186500D02*
D03*
D26*
X667840Y197000D02*
D03*
X659340D02*
D03*
X642340Y57000D02*
D03*
X650840D02*
D03*
X667840D02*
D03*
X650840Y197000D02*
D03*
X659340Y57000D02*
D03*
X633840D02*
D03*
X625340D02*
D03*
X616840D02*
D03*
X608340D02*
D03*
X599840D02*
D03*
X591340D02*
D03*
X582840D02*
D03*
X574340D02*
D03*
X565840D02*
D03*
X557340D02*
D03*
X548840D02*
D03*
Y197000D02*
D03*
X557340D02*
D03*
X565840D02*
D03*
X574340D02*
D03*
X582840D02*
D03*
X591340D02*
D03*
X599840D02*
D03*
X608340D02*
D03*
X616840D02*
D03*
X625340D02*
D03*
X633840D02*
D03*
X642340D02*
D03*
D27*
X315850Y213000D02*
D03*
X395350D02*
D03*
Y86000D02*
D03*
X315850D02*
D03*
Y41000D02*
D03*
X395350D02*
D03*
Y168000D02*
D03*
X315850D02*
D03*
D28*
X608340Y143500D02*
D03*
X591840D02*
D03*
X624840Y127000D02*
D03*
X591840D02*
D03*
X608340D02*
D03*
X624840Y110500D02*
D03*
X608340D02*
D03*
X591840D02*
D03*
D29*
X450850Y43510D02*
D03*
Y53010D02*
D03*
X449580Y192100D02*
D03*
Y201600D02*
D03*
D30*
X109220Y203960D02*
D03*
Y187200D02*
D03*
X110490Y65530D02*
D03*
X110998Y45468D02*
D03*
Y36828D02*
D03*
X259080Y159510D02*
D03*
X257810Y195070D02*
D03*
X422910Y60450D02*
D03*
Y69090D02*
D03*
X464820Y53340D02*
D03*
Y193800D02*
D03*
Y202440D02*
D03*
Y44700D02*
D03*
X156210Y145540D02*
D03*
Y154180D02*
D03*
X109220Y212600D02*
D03*
Y178560D02*
D03*
X110490Y74170D02*
D03*
X259080Y168150D02*
D03*
X257810Y203710D02*
D03*
D31*
X62900Y223750D02*
D03*
Y159750D02*
D03*
Y94250D02*
D03*
Y30250D02*
D03*
Y167750D02*
D03*
Y215750D02*
D03*
Y38250D02*
D03*
Y86250D02*
D03*
D32*
X83872Y159766D02*
D03*
X88190Y95250D02*
D03*
X90372Y159766D02*
D03*
X94690Y95250D02*
D03*
D33*
X229370Y73660D02*
D03*
D34*
X294601Y161950D02*
D03*
X275590Y152450D02*
D03*
X274320Y189280D02*
D03*
X293331Y198780D02*
D03*
D35*
X275590Y171450D02*
D03*
X274320Y208280D02*
D03*
D36*
X190340Y214735D02*
D03*
D47*
X180340Y195580D02*
D03*
D54*
X57150Y234950D02*
D03*
Y148550D02*
D03*
Y105450D02*
D03*
Y19050D02*
D03*
D55*
X17150Y234950D02*
D03*
Y148550D02*
D03*
Y105450D02*
D03*
Y19050D02*
D03*
D58*
X624840Y143500D02*
D03*
D59*
X181602Y161268D02*
X181737Y161403D01*
X181602Y155729D02*
X182390Y154940D01*
X181737Y161403D02*
Y162430D01*
X181602Y155729D02*
Y161268D01*
X182390Y143510D02*
Y154940D01*
X182380Y143500D02*
X182390Y143510D01*
X182380Y132090D02*
Y143500D01*
X182370Y132080D02*
X182380Y132090D01*
X175257Y168910D02*
X181737Y162430D01*
X155448Y129540D02*
X165791D01*
X173349Y131699D02*
X173730Y132080D01*
X167949Y131699D02*
X173349D01*
X165791Y129540D02*
X167949Y131699D01*
X151892Y133096D02*
X155448Y129540D01*
X165250Y98280D02*
X166870Y96660D01*
X144480Y98280D02*
X165250D01*
X139945Y212335D02*
Y241055D01*
X93980Y127000D02*
X115760D01*
X144480Y98280D01*
X435883Y55191D02*
Y59417D01*
Y55191D02*
X446469Y44605D01*
X435610Y59690D02*
X435883Y59417D01*
X196095Y148915D02*
X199207D01*
X190990Y143510D02*
Y143810D01*
X199207Y148915D02*
X199644Y149352D01*
X190990Y143810D02*
X196095Y148915D01*
X191785Y156035D02*
X195548D01*
X196739Y157226D01*
X190990Y154940D02*
Y155240D01*
X191785Y156035D01*
X196739Y157226D02*
X197358D01*
X168610Y145560D02*
X168910D01*
X163505Y140455D02*
X168610Y145560D01*
X163505Y137851D02*
Y140455D01*
X163068Y137414D02*
X163505Y137851D01*
X675673Y205707D02*
X678180Y203200D01*
Y197160D02*
Y203200D01*
X674080Y214630D02*
Y240320D01*
X673100Y241300D02*
X674080Y240320D01*
X678180Y197160D02*
X678340Y197000D01*
X667745Y197095D02*
Y203475D01*
Y197095D02*
X667840Y197000D01*
X658479Y208280D02*
X661052Y205707D01*
X665513D01*
X657860Y208280D02*
Y209740D01*
X653270Y214330D02*
X657860Y209740D01*
Y208280D02*
X658479D01*
X665513Y205707D02*
X675673D01*
X665513D02*
X667745Y203475D01*
X658630Y183260D02*
Y197000D01*
X665860Y161790D02*
X679600D01*
X665860Y152900D02*
X679600D01*
X665860Y135120D02*
X679600D01*
X665860Y144010D02*
X679600D01*
X665860Y127500D02*
X679600D01*
X665860Y178300D02*
X679600D01*
X665860Y185920D02*
X679600D01*
X665860Y169410D02*
X679600D01*
X653270Y214330D02*
Y214630D01*
X622590D02*
Y221270D01*
X626110Y224790D01*
X375920Y218440D02*
X381360Y213000D01*
X395350D01*
X304440D02*
X315850D01*
X303530Y212090D02*
X304440Y213000D01*
X314960Y136001D02*
Y141750D01*
Y136001D02*
X317500Y133461D01*
Y132842D02*
Y133461D01*
X665860Y110990D02*
X679600D01*
X665860Y118610D02*
X679600D01*
X665860Y102100D02*
X679600D01*
X665860Y93210D02*
X679600D01*
X665860Y67810D02*
X679600D01*
X665860Y76700D02*
X679600D01*
X665860Y84320D02*
X679600D01*
X678180Y56840D02*
X678340Y57000D01*
X678180Y49530D02*
Y56840D01*
X674370Y45720D02*
X678180Y49530D01*
X664990Y29990D02*
Y36830D01*
X641850Y58270D02*
Y72010D01*
X650740Y58270D02*
Y72010D01*
X647700Y12700D02*
X664990Y29990D01*
X395350Y86000D02*
Y99950D01*
X394970Y100330D02*
X395350Y99950D01*
X522120Y57000D02*
X538340D01*
X521970Y57150D02*
X522120Y57000D01*
X446469Y44605D02*
X449755D01*
X450850Y43510D01*
X406400Y60960D02*
X406837Y60523D01*
Y56713D02*
Y60523D01*
X410313Y53237D02*
X414800Y48750D01*
X422910D01*
X406837Y56713D02*
X410313Y53237D01*
Y53237D02*
Y53237D01*
X232900Y196360D02*
X236220Y193040D01*
X232900Y196360D02*
Y204470D01*
X123190Y212090D02*
X131590D01*
X119523Y204470D02*
X120142D01*
X128270Y173038D02*
Y175514D01*
X119013Y203960D02*
X119523Y204470D01*
X236871Y149860D02*
X238141Y148590D01*
X238760D01*
X226570Y149860D02*
X236871D01*
X131590Y169418D02*
Y169718D01*
X128270Y173038D02*
X131590Y169718D01*
X119395Y168163D02*
X120142Y168910D01*
X109220Y203960D02*
X119013D01*
X110015Y186405D02*
X113361D01*
X92686Y212090D02*
X93726D01*
X109220Y187200D02*
X110015Y186405D01*
X113361D02*
X117419Y182348D01*
X94441Y181055D02*
X97282Y183896D01*
X89586Y208990D02*
X92686Y212090D01*
X88646Y208990D02*
X89586D01*
X117419Y180015D02*
Y182348D01*
Y180015D02*
X117856Y179578D01*
X89408Y180900D02*
X89563Y181055D01*
X94441D01*
X119395Y163355D02*
Y168163D01*
X118600Y162560D02*
X119395Y163355D01*
X234950Y135890D02*
X238760Y132080D01*
X226570Y135890D02*
X234950D01*
X118689Y72461D02*
X119126Y72898D01*
X118689Y70382D02*
Y72461D01*
X114631Y66325D02*
X118689Y70382D01*
X111285Y66325D02*
X114631D01*
X110490Y65530D02*
X111285Y66325D01*
X110870Y45340D02*
X110998Y45468D01*
X101092Y45212D02*
X101220Y45340D01*
X110870D01*
X237419Y120142D02*
X246888Y129611D01*
Y151892D01*
X234950Y163830D02*
X246888Y151892D01*
X149098Y120142D02*
X237419D01*
X129540Y139700D02*
X149098Y120142D01*
X147828Y150576D02*
X152069Y146335D01*
X155415D01*
X156210Y145540D01*
X147828Y150576D02*
Y163322D01*
X153985Y169479D01*
X644280Y215103D02*
Y223892D01*
X643890Y224282D02*
X644280Y223892D01*
Y215103D02*
X644711Y214671D01*
X635000Y218440D02*
Y223520D01*
X631190Y214930D02*
X631985Y215725D01*
X632285D02*
X635000Y218440D01*
X631190Y214630D02*
Y214930D01*
X631985Y215725D02*
X632285D01*
X644398Y214358D02*
X644711Y214671D01*
X644398Y208280D02*
Y214358D01*
Y208280D02*
X650745Y201933D01*
Y197095D02*
Y201933D01*
Y197095D02*
X650840Y197000D01*
X140251Y169479D02*
X153985D01*
X159513D01*
X140190Y169418D02*
X140251Y169479D01*
X159513D02*
X161773Y167218D01*
X162392D01*
X198134Y132080D02*
X200985Y129230D01*
Y128199D02*
Y129230D01*
Y128199D02*
X201422Y127762D01*
X191010Y132080D02*
X198134D01*
X93980Y139700D02*
X129540D01*
X226570Y163830D02*
X234950D01*
X94690Y95250D02*
X101710D01*
X108730D01*
Y107170D01*
X102815Y113085D02*
X108730Y107170D01*
X95195Y113085D02*
X102815D01*
X93980Y114300D02*
X95195Y113085D01*
X667745Y56905D02*
X667840Y57000D01*
X433580Y69090D02*
X436880Y72390D01*
X422910Y69090D02*
X433580D01*
X464820Y53340D02*
X471170D01*
X474980Y57150D01*
X659245Y56905D02*
X659340Y57000D01*
X673100Y12700D02*
X673590Y13190D01*
Y36830D01*
X647700Y241300D02*
X665480Y223520D01*
Y214630D02*
Y223520D01*
D60*
X175257Y176342D02*
X175340Y176425D01*
X175257Y168910D02*
Y176342D01*
X139945Y212335D02*
X140190Y212090D01*
X180340Y172720D02*
X184150Y168910D01*
X189230Y163830D01*
X189230D01*
X180340Y172720D02*
Y176425D01*
Y214735D02*
Y219710D01*
X172720Y227330D02*
X180340Y219710D01*
X162392Y167218D02*
Y185521D01*
X161185Y185580D02*
X162333D01*
X162392Y185521D01*
D61*
X143582Y194194D02*
X153670D01*
X156102D01*
X140718Y197058D02*
X143582Y194194D01*
X156102D02*
X157326Y195419D01*
X161024D01*
X161185Y195580D01*
X140718Y197058D02*
Y197358D01*
X130169Y195449D02*
X132078Y197358D01*
X130169Y195139D02*
Y195449D01*
X122682Y196469D02*
X123609D01*
X125866Y194212D01*
X129242D02*
X130169Y195139D01*
X125866Y194212D02*
X129242D01*
X87551Y188359D02*
X88510Y187400D01*
X88612D01*
X87551Y188359D02*
Y189941D01*
X88612Y187400D02*
X89408D01*
X84328Y193165D02*
X87551Y189941D01*
X79583Y187400D02*
X88510D01*
X62900Y194250D02*
X63577Y193573D01*
X84328Y193165D02*
Y193802D01*
X63577Y193573D02*
X70260D01*
X76433Y184250D02*
X79583Y187400D01*
X70260Y193573D02*
X78008Y185825D01*
Y185825D02*
Y185825D01*
X62900Y184250D02*
X76433D01*
X153670Y190580D02*
X161185D01*
X143800D02*
X153670D01*
X140972Y187452D02*
Y187752D01*
X143800Y190580D01*
X88646Y202490D02*
X89896D01*
X78768D02*
X88646D01*
X89896D02*
X90218Y202168D01*
Y199293D02*
X93472Y196039D01*
X90218Y199293D02*
Y202168D01*
X93472Y194818D02*
Y196039D01*
X75528Y199250D02*
X78768Y202490D01*
X62900Y199250D02*
X75528D01*
X53848Y191008D02*
Y197866D01*
Y191008D02*
X55376Y189480D01*
X62670D01*
X62900Y189250D01*
X53848Y197866D02*
X55232Y199250D01*
X62900D01*
X132332Y187452D02*
Y187752D01*
X129486Y190598D02*
X132332Y187752D01*
X122682Y188341D02*
X123609D01*
X125866Y190598D01*
X129486D01*
X75070Y54750D02*
X77354Y57034D01*
X62900Y54750D02*
X75070D01*
X77354Y57034D02*
X85957Y48429D01*
X69990Y64398D02*
X77354Y57034D01*
X63253Y64398D02*
X69990D01*
X62900Y64750D02*
X63253Y64398D01*
X85957Y48429D02*
X89440D01*
X90170Y47700D01*
X91420D01*
X83901Y58726D02*
X90170D01*
X72877Y69750D02*
X83901Y58726D01*
X62900Y69750D02*
X72877D01*
X51308Y67789D02*
X53269Y69750D01*
X51308Y61751D02*
X53309Y59750D01*
X51308Y61751D02*
Y67789D01*
X53269Y69750D02*
X62900D01*
X53309Y59750D02*
X62900D01*
X124750Y57543D02*
Y57746D01*
X123456Y51582D02*
X125370Y49669D01*
X91420Y47700D02*
X95302Y51582D01*
X123456D01*
X125370Y49669D02*
X126591D01*
X94860Y55286D02*
X122493D01*
X91420Y58726D02*
X94860Y55286D01*
X90170Y58726D02*
X91420D01*
X122493Y55286D02*
X124750Y57543D01*
Y57746D02*
X125677D01*
X434594Y139475D02*
X434623D01*
X436880Y137218D01*
X434594Y131347D02*
X435131D01*
X437388Y133604D01*
X436880Y137218D02*
X442664D01*
X449580Y130302D01*
X462892D01*
X437388Y133604D02*
X441166D01*
X448083Y126688D01*
X461395D01*
X472261Y120933D02*
X475698D01*
X462892Y130302D02*
X472261Y120933D01*
X476625Y121860D02*
Y125599D01*
X475698Y120933D02*
X476625Y121860D01*
Y125599D02*
X478534Y127508D01*
X470764Y117319D02*
X475698D01*
X476625Y112653D02*
X478534Y110744D01*
X476625Y112653D02*
Y116392D01*
X475698Y117319D02*
X476625Y116392D01*
X461395Y126688D02*
X470764Y117319D01*
X179607Y26688D02*
X192336Y39417D01*
Y44811D02*
X194056Y46531D01*
X179607Y22606D02*
Y26688D01*
X192336Y39417D02*
Y44811D01*
X194056Y46531D02*
Y47752D01*
X185928Y47362D02*
Y47752D01*
Y47362D02*
X188722Y44568D01*
Y40914D02*
Y44568D01*
X175993Y28185D02*
X188722Y40914D01*
X175993Y22606D02*
Y28185D01*
X179607Y22606D02*
X189513Y12700D01*
X166087D02*
X175993Y22606D01*
X165100Y12700D02*
X166087D01*
X189513D02*
X190500D01*
D62*
X160753Y36568D02*
X164825Y40640D01*
X153742Y36568D02*
X160753D01*
X146350Y43960D02*
X153742Y36568D01*
X164825Y40640D02*
X165100D01*
X162620Y50660D02*
X166870D01*
X71575Y94710D02*
X73660Y96795D01*
X74655Y97790D02*
X74930D01*
X73660Y96795D02*
X74655Y97790D01*
X63360Y94710D02*
X71575D01*
X62900Y94250D02*
X63360Y94710D01*
X627370Y143490D02*
Y154930D01*
X526205Y197000D02*
X538340D01*
X608320Y144760D02*
Y156200D01*
X519705Y190500D02*
X526205Y197000D01*
X519430Y190500D02*
X519705D01*
X624820Y127010D02*
X636260D01*
X580390Y143510D02*
X580400Y143500D01*
X591840D01*
X580400Y126990D02*
X591840D01*
X623550Y110500D02*
X624840D01*
X634990D01*
X608335Y109235D02*
X608340Y109240D01*
X608330Y99060D02*
X608335Y99065D01*
X580400Y110480D02*
X591840D01*
X608335Y99065D02*
Y109235D01*
X315850Y86000D02*
Y98680D01*
X316230Y99060D01*
X70500Y228600D02*
X72644D01*
X65650Y223750D02*
X70500Y228600D01*
X62900Y223750D02*
X65650D01*
X73644Y159750D02*
X73914Y160020D01*
X62900Y159750D02*
X73644D01*
X235130Y79419D02*
Y99747D01*
X235204Y99822D01*
X229370Y73660D02*
X235130Y79419D01*
X117490Y102250D02*
X119380Y104140D01*
X144480Y89680D02*
X144780D01*
X137354Y82554D02*
X144480Y89680D01*
X137354Y72584D02*
Y82554D01*
X165794Y72584D02*
X166870Y73660D01*
X147514Y72584D02*
X165794D01*
X147320Y72390D02*
X147514Y72584D01*
X137160Y72390D02*
X147320D01*
Y72115D02*
Y72390D01*
X146050Y70845D02*
X147320Y72115D01*
X146050Y52560D02*
Y70845D01*
X137160Y72390D02*
X137354Y72584D01*
X127000Y72390D02*
X137160D01*
X134620Y52560D02*
Y64770D01*
X127000Y72390D02*
X134620Y64770D01*
X117490Y95410D02*
Y102250D01*
X117330Y95250D02*
X117490Y95410D01*
X75970Y30250D02*
X76200Y30480D01*
X62900Y30250D02*
X75970D01*
X128460Y38100D02*
X134320Y43960D01*
X134620D01*
X124460Y38100D02*
X128460D01*
X134620Y43960D02*
X146050D01*
X49269Y138176D02*
X92456D01*
X43070Y144375D02*
X49269Y138176D01*
X92456D02*
X93980Y139700D01*
X43070Y160672D02*
X50292Y167894D01*
X43070Y144375D02*
Y160672D01*
X101075Y157463D02*
Y162560D01*
X93980Y150368D02*
X101075Y157463D01*
X93980Y139700D02*
Y150368D01*
X50950Y215750D02*
X62900D01*
X46482Y211282D02*
X50950Y215750D01*
X46482Y171704D02*
Y211282D01*
Y171704D02*
X50292Y167894D01*
X62756D01*
X62900Y167750D01*
X44450Y43180D02*
Y80010D01*
X50690Y86250D01*
X44450Y43180D02*
X49380Y38250D01*
X50690Y86250D02*
X62900D01*
X49380Y38250D02*
X62900D01*
Y86250D02*
X96410D01*
X101600Y91440D02*
Y95140D01*
X96410Y86250D02*
X101600Y91440D01*
Y95140D02*
X101710Y95250D01*
X160660Y48700D02*
X162620Y50660D01*
X160660Y47950D02*
Y48700D01*
X156670Y43960D02*
X160660Y47950D01*
X146050Y43960D02*
X156670D01*
X464820Y185420D02*
X468630Y181610D01*
X464820Y185420D02*
Y193800D01*
D63*
X83872Y152194D02*
Y159512D01*
X80343Y148665D02*
X83872Y152194D01*
X78509Y148665D02*
X80343D01*
X77926Y148082D02*
X78509Y148665D01*
X87964Y96260D02*
X88190Y96034D01*
Y95250D02*
Y96034D01*
X98036Y65226D02*
X100628Y67818D01*
X81280Y99060D02*
X84080Y96260D01*
X87964D01*
X81280Y99060D02*
Y104140D01*
X91646Y39885D02*
X93432Y38100D01*
X99060D01*
X91194Y41426D02*
X91646Y40974D01*
Y39885D02*
Y40974D01*
X90170Y65226D02*
X98036D01*
X89766Y41426D02*
X91194D01*
X110000Y162560D02*
X111176Y161384D01*
X101075Y162560D02*
X110000D01*
X90372Y159766D02*
X93166Y162560D01*
X101075D01*
D64*
X505305Y130810D02*
X506476D01*
X502003Y127508D02*
X505305Y130810D01*
X495810Y127508D02*
X502003D01*
X495810Y110744D02*
X503682D01*
X535157Y125539D02*
Y125817D01*
X503674Y120505D02*
X507752Y124583D01*
X534200D01*
X535157Y125539D01*
Y125817D02*
X536340Y127000D01*
X538340D01*
X535157Y119683D02*
Y119961D01*
X534200Y120917D02*
X535157Y119961D01*
X509270Y120917D02*
X534200D01*
X536340Y118500D02*
X538340D01*
X535157Y119683D02*
X536340Y118500D01*
X505193Y116840D02*
X509270Y120917D01*
X487919Y114983D02*
X489776Y116840D01*
X505193D01*
X487697Y110759D02*
X487936Y110998D01*
X487919Y110729D02*
Y114983D01*
X487170Y122430D02*
Y127508D01*
X489095Y120505D02*
X503674D01*
X487170Y122430D02*
X489095Y120505D01*
D65*
X139700Y241300D02*
D03*
X88900D02*
D03*
X114300D02*
D03*
X165100D02*
D03*
X190500D02*
D03*
X215900D02*
D03*
X241300D02*
D03*
X266700D02*
D03*
X292100D02*
D03*
X317500D02*
D03*
X342900D02*
D03*
X368300D02*
D03*
X393700D02*
D03*
X419100D02*
D03*
X444500D02*
D03*
X469900D02*
D03*
X495300D02*
D03*
X520700D02*
D03*
X546100D02*
D03*
X571500D02*
D03*
X596900D02*
D03*
X622300D02*
D03*
X647700D02*
D03*
Y12700D02*
D03*
X88900D02*
D03*
X622300D02*
D03*
X190500D02*
D03*
X596900D02*
D03*
X571500D02*
D03*
X546100D02*
D03*
X520700D02*
D03*
X495300D02*
D03*
X469900D02*
D03*
X444500D02*
D03*
X419100D02*
D03*
X393700D02*
D03*
X368300D02*
D03*
X342900D02*
D03*
X317500D02*
D03*
X292100D02*
D03*
X266700D02*
D03*
X241300D02*
D03*
X215900D02*
D03*
X165100D02*
D03*
X139700D02*
D03*
X114300D02*
D03*
D66*
X93980Y127000D02*
D03*
X370840Y129540D02*
D03*
X93980Y114300D02*
D03*
D67*
X673100Y241300D02*
D03*
Y12700D02*
D03*
D68*
X358140Y129540D02*
D03*
D69*
X93980Y139700D02*
D03*
D70*
X184150Y193040D02*
D03*
X152400Y135382D02*
D03*
X84328Y193802D02*
D03*
X122682Y196469D02*
D03*
X486664Y172466D02*
D03*
X482854Y156972D02*
D03*
X165100Y40640D02*
D03*
X276860Y116586D02*
D03*
X266700D02*
D03*
X246380D02*
D03*
X256540D02*
D03*
X276860Y82550D02*
D03*
X267208Y100076D02*
D03*
X277368D02*
D03*
X257048D02*
D03*
X246888D02*
D03*
X266700Y82550D02*
D03*
X246380D02*
D03*
X256540D02*
D03*
X435610Y59690D02*
D03*
X128270Y175514D02*
D03*
X199644Y149352D02*
D03*
X197358Y157226D02*
D03*
X183134Y202184D02*
D03*
X174498Y191262D02*
D03*
X175006Y201676D02*
D03*
X163068Y137414D02*
D03*
X77926Y148082D02*
D03*
X72644Y228600D02*
D03*
X657860Y208280D02*
D03*
X665860Y185920D02*
D03*
Y178300D02*
D03*
X658630Y183260D02*
D03*
X665860Y169410D02*
D03*
Y135120D02*
D03*
Y144010D02*
D03*
Y127500D02*
D03*
Y161790D02*
D03*
Y152900D02*
D03*
X626110Y224790D02*
D03*
X627380Y154940D02*
D03*
X608330Y156210D02*
D03*
X375920Y218440D02*
D03*
X300990Y210820D02*
D03*
X519430Y190500D02*
D03*
X616712Y135128D02*
D03*
X600202D02*
D03*
X636270Y127000D02*
D03*
X580390Y143510D02*
D03*
Y127000D02*
D03*
X516636Y131064D02*
D03*
X317500Y132842D02*
D03*
X665860Y93210D02*
D03*
Y102100D02*
D03*
Y84320D02*
D03*
Y110990D02*
D03*
Y118610D02*
D03*
X635000Y110490D02*
D03*
X616712Y118618D02*
D03*
X608330Y99060D02*
D03*
X674370Y45720D02*
D03*
X665860Y76700D02*
D03*
X650740Y72010D02*
D03*
X665860Y67810D02*
D03*
X641850Y72010D02*
D03*
X599948Y118618D02*
D03*
X513842Y114808D02*
D03*
X580390Y110490D02*
D03*
X395350Y99950D02*
D03*
X316230Y99060D02*
D03*
X521970Y57150D02*
D03*
X406400Y60960D02*
D03*
X236220Y193040D02*
D03*
X172720Y227330D02*
D03*
X123190Y212090D02*
D03*
X120142Y204470D02*
D03*
X189230Y163830D02*
D03*
X238760Y148590D02*
D03*
X121666Y170688D02*
D03*
X95758Y212852D02*
D03*
X97282Y183896D02*
D03*
X117856Y179578D02*
D03*
X73914Y160020D02*
D03*
X238760Y132080D02*
D03*
X235204Y99822D02*
D03*
X121920Y104140D02*
D03*
X147320Y72390D02*
D03*
X180086Y41148D02*
D03*
X198882D02*
D03*
X137160Y72390D02*
D03*
X127000D02*
D03*
X119126Y72898D02*
D03*
X122936Y65786D02*
D03*
X119126Y45212D02*
D03*
X100628Y67818D02*
D03*
X81280Y104140D02*
D03*
X74930Y97790D02*
D03*
X101092Y45212D02*
D03*
X99060Y38100D02*
D03*
X76200Y30480D02*
D03*
X124460Y38100D02*
D03*
X203708Y211582D02*
D03*
X643890Y224282D02*
D03*
X625348Y175260D02*
D03*
X633476Y185166D02*
D03*
X223012Y225806D02*
D03*
X454152Y151892D02*
D03*
X477520Y149860D02*
D03*
X162392Y167218D02*
D03*
X502666Y79756D02*
D03*
X511810Y165354D02*
D03*
X201422Y127762D02*
D03*
X418338Y159766D02*
D03*
X426974Y161290D02*
D03*
X199390Y221996D02*
D03*
X93472Y194818D02*
D03*
X122682Y188341D02*
D03*
X436118Y151892D02*
D03*
X125677Y57746D02*
D03*
X126591Y49669D02*
D03*
X434594Y139475D02*
D03*
Y131347D02*
D03*
X506476Y130810D02*
D03*
X194056Y47752D02*
D03*
X185928D02*
D03*
X505714Y110744D02*
D03*
X441198Y102897D02*
D03*
X455930Y95504D02*
D03*
X406400Y114300D02*
D03*
X214065Y179070D02*
D03*
X496570Y172720D02*
D03*
X505460Y180340D02*
D03*
X525780Y91440D02*
D03*
X485140D02*
D03*
X499110Y88900D02*
D03*
X436880Y72390D02*
D03*
X474980Y57150D02*
D03*
X635000Y223520D02*
D03*
X468630Y181610D02*
D03*
X548640Y185420D02*
D03*
Y83820D02*
D03*
X599440Y185420D02*
D03*
X582440D02*
D03*
X565440Y185620D02*
D03*
X616440Y185420D02*
D03*
X565730Y83820D02*
D03*
X582730D02*
D03*
X633730D02*
D03*
X599730D02*
D03*
X616730D02*
D03*
X625340Y70740D02*
D03*
X608340D02*
D03*
X591340D02*
D03*
X574340D02*
D03*
X557340D02*
D03*
X557530Y175260D02*
D03*
X574330D02*
D03*
X591330D02*
D03*
X608330D02*
D03*
M02*
