G04*
G04 #@! TF.GenerationSoftware,Altium Limited,Altium Designer,26.1.1 (7)*
G04*
G04 Layer_Physical_Order=2*
G04 Layer_Color=36540*
%FSLAX44Y44*%
%MOMM*%
G71*
G04*
G04 #@! TF.SameCoordinates,F0D65C84-A3F1-487F-912E-D9069717FDA7*
G04*
G04*
G04 #@! TF.FilePolarity,Positive*
G04*
G01*
G75*
G04:AMPARAMS|DCode=54|XSize=1mm|YSize=1.8mm|CornerRadius=0.5mm|HoleSize=0mm|Usage=FLASHONLY|Rotation=270.000|XOffset=0mm|YOffset=0mm|HoleType=Round|Shape=RoundedRectangle|*
%AMROUNDEDRECTD54*
21,1,1.0000,0.8000,0,0,270.0*
21,1,0.0000,1.8000,0,0,270.0*
1,1,1.0000,-0.4000,0.0000*
1,1,1.0000,-0.4000,0.0000*
1,1,1.0000,0.4000,0.0000*
1,1,1.0000,0.4000,0.0000*
%
%ADD54ROUNDEDRECTD54*%
G04:AMPARAMS|DCode=55|XSize=1mm|YSize=2.2mm|CornerRadius=0.5mm|HoleSize=0mm|Usage=FLASHONLY|Rotation=270.000|XOffset=0mm|YOffset=0mm|HoleType=Round|Shape=RoundedRectangle|*
%AMROUNDEDRECTD55*
21,1,1.0000,1.2000,0,0,270.0*
21,1,0.0000,2.2000,0,0,270.0*
1,1,1.0000,-0.6000,0.0000*
1,1,1.0000,-0.6000,0.0000*
1,1,1.0000,0.6000,0.0000*
1,1,1.0000,0.6000,0.0000*
%
%ADD55ROUNDEDRECTD55*%
%ADD62C,0.5080*%
%ADD65C,1.6256*%
%ADD66C,1.0160*%
%ADD67R,1.6256X1.6256*%
%ADD68R,1.0160X1.0160*%
%ADD69R,1.0160X1.0160*%
%ADD70C,0.6096*%
%ADD71C,1.0160*%
G36*
X680720Y233222D02*
X665022D01*
Y248920D01*
X680720D01*
Y233222D01*
D02*
G37*
G36*
X207101Y247396D02*
X205959Y245418D01*
X205232Y242705D01*
Y239895D01*
X205959Y237182D01*
X206390Y236435D01*
X206019Y235340D01*
X205179Y234779D01*
X204617Y233939D01*
X204420Y232948D01*
Y227024D01*
X202896Y226392D01*
X202555Y226733D01*
X200501Y227584D01*
X198279D01*
X196225Y226733D01*
X194653Y225161D01*
X193802Y223107D01*
Y220884D01*
X194653Y218831D01*
X196225Y217259D01*
X198279Y216408D01*
X198476D01*
X199107Y214884D01*
X198971Y214747D01*
X198120Y212694D01*
Y210471D01*
X198971Y208417D01*
X200543Y206845D01*
X202596Y205994D01*
X203283D01*
X203914Y204470D01*
X173127Y173683D01*
X171906Y172092D01*
X171138Y170238D01*
X170876Y168249D01*
Y150622D01*
X171138Y148633D01*
X171906Y146779D01*
X173127Y145187D01*
X195987Y122327D01*
X197579Y121106D01*
X199433Y120338D01*
X201422Y120076D01*
X203411Y120338D01*
X205265Y121106D01*
X206857Y122327D01*
X208078Y123919D01*
X208846Y125773D01*
X209108Y127762D01*
X208846Y129751D01*
X208078Y131605D01*
X206857Y133197D01*
X186248Y153806D01*
Y165065D01*
X207823Y186640D01*
X230136D01*
X230407Y186694D01*
X230683Y186699D01*
X230898Y186792D01*
X231127Y186837D01*
X231357Y186991D01*
X231610Y187101D01*
X231773Y187269D01*
X231967Y187399D01*
X232121Y187628D01*
X232313Y187827D01*
X233295Y189351D01*
X233381Y189569D01*
X233511Y189763D01*
X233565Y190034D01*
X233666Y190291D01*
X233663Y190525D01*
X233708Y190754D01*
X233654Y191025D01*
X233650Y191301D01*
X233557Y191516D01*
X233511Y191745D01*
X233222Y192444D01*
Y193636D01*
X233678Y194738D01*
X234522Y195582D01*
X235585Y196022D01*
X236855D01*
X237918Y195582D01*
X238762Y194738D01*
X239218Y193636D01*
Y192444D01*
X238929Y191745D01*
X238883Y191516D01*
X238790Y191301D01*
X238786Y191025D01*
X238732Y190754D01*
X238777Y190525D01*
X238773Y190291D01*
X238875Y190034D01*
X238929Y189763D01*
X239059Y189569D01*
X239145Y189351D01*
X240127Y187827D01*
X240319Y187628D01*
X240473Y187399D01*
X240667Y187269D01*
X240830Y187101D01*
X241083Y186991D01*
X241313Y186837D01*
X241542Y186792D01*
X241757Y186699D01*
X242033Y186694D01*
X242304Y186640D01*
X277057D01*
X300799Y162899D01*
X300806Y162894D01*
X300811Y162887D01*
X301226Y162614D01*
X301639Y162337D01*
X301647Y162336D01*
X301654Y162331D01*
X302143Y162237D01*
X302630Y162140D01*
X302638Y162142D01*
X302647Y162140D01*
X359328Y162503D01*
X361900Y159931D01*
Y137160D01*
X358640D01*
X358140Y137226D01*
X357640Y137160D01*
X350520D01*
Y132789D01*
X337100Y119369D01*
X313767D01*
X313767Y119369D01*
X312772Y119238D01*
X311777Y119107D01*
X309924Y118340D01*
X308332Y117118D01*
X282093Y90879D01*
X280872Y89288D01*
X280104Y87434D01*
X279842Y85445D01*
Y73542D01*
X244466Y38166D01*
X178444D01*
X176834Y39776D01*
Y48514D01*
X176637Y49505D01*
X176075Y50345D01*
X175235Y50907D01*
X174244Y51104D01*
X137668D01*
X136677Y50907D01*
X135837Y50345D01*
X132734Y47242D01*
X131442Y48106D01*
X131671Y48659D01*
Y50680D01*
X130898Y52547D01*
X129468Y53976D01*
X129887Y54771D01*
X129984Y54868D01*
X130757Y56735D01*
Y58756D01*
X129984Y60623D01*
X128555Y62052D01*
X126687Y62826D01*
X124667D01*
X122799Y62052D01*
X121370Y60623D01*
X120597Y58756D01*
Y56735D01*
X121370Y54868D01*
X122799Y53439D01*
X122381Y52644D01*
X122284Y52547D01*
X121511Y50680D01*
Y48659D01*
X122284Y46792D01*
X123378Y45698D01*
X123376Y44323D01*
X123242Y43908D01*
X121128Y42806D01*
X121043Y42737D01*
X120939Y42707D01*
X116658Y40473D01*
X116352Y40227D01*
X116025Y40009D01*
X115961Y39913D01*
X115871Y39840D01*
X115682Y39495D01*
X115463Y39168D01*
X115441Y39055D01*
X115385Y38954D01*
X115343Y38563D01*
X115266Y38177D01*
Y32512D01*
X115463Y31521D01*
X116025Y30681D01*
X116865Y30119D01*
X117856Y29922D01*
X164949D01*
X169825Y25045D01*
X169825Y25045D01*
X171417Y23824D01*
X173271Y23056D01*
X175260Y22794D01*
X184616D01*
X185024Y21270D01*
X184262Y20830D01*
X182370Y18938D01*
X181032Y16622D01*
X180340Y14038D01*
Y11362D01*
X181032Y8778D01*
X182288Y6604D01*
X181986Y5534D01*
X181798Y5080D01*
X173802D01*
X173614Y5534D01*
X173312Y6604D01*
X174568Y8778D01*
X175260Y11362D01*
Y14038D01*
X174568Y16622D01*
X173230Y18938D01*
X171338Y20830D01*
X169022Y22168D01*
X166438Y22860D01*
X163762D01*
X161178Y22168D01*
X158862Y20830D01*
X156970Y18938D01*
X155632Y16622D01*
X154940Y14038D01*
Y11362D01*
X155632Y8778D01*
X156888Y6604D01*
X156586Y5534D01*
X156398Y5080D01*
X149155D01*
X148499Y6604D01*
X149641Y8582D01*
X150368Y11295D01*
Y14104D01*
X149641Y16818D01*
X148237Y19250D01*
X146250Y21237D01*
X143818Y22641D01*
X141104Y23368D01*
X138295D01*
X135582Y22641D01*
X133150Y21237D01*
X131164Y19250D01*
X129759Y16818D01*
X129032Y14104D01*
Y11295D01*
X129759Y8582D01*
X130901Y6604D01*
X130245Y5080D01*
X123755D01*
X123099Y6604D01*
X124241Y8582D01*
X124968Y11295D01*
Y14104D01*
X124241Y16818D01*
X122837Y19250D01*
X120850Y21237D01*
X118418Y22641D01*
X115704Y23368D01*
X112895D01*
X110182Y22641D01*
X107750Y21237D01*
X105764Y19250D01*
X104359Y16818D01*
X103632Y14104D01*
Y11295D01*
X104359Y8582D01*
X105501Y6604D01*
X104845Y5080D01*
X5080D01*
Y248920D01*
X79445D01*
X80101Y247396D01*
X78959Y245418D01*
X78232Y242705D01*
Y239895D01*
X78959Y237182D01*
X80364Y234750D01*
X82350Y232764D01*
X84782Y231359D01*
X87495Y230632D01*
X90304D01*
X93018Y231359D01*
X95450Y232764D01*
X97437Y234750D01*
X98841Y237182D01*
X99568Y239895D01*
Y242705D01*
X98841Y245418D01*
X97699Y247396D01*
X98355Y248920D01*
X130245D01*
X130901Y247396D01*
X129759Y245418D01*
X129032Y242705D01*
Y239895D01*
X129759Y237182D01*
X131164Y234750D01*
X133150Y232764D01*
X135582Y231359D01*
X138295Y230632D01*
X141104D01*
X143818Y231359D01*
X146250Y232764D01*
X148237Y234750D01*
X149641Y237182D01*
X150368Y239895D01*
Y242705D01*
X149641Y245418D01*
X148499Y247396D01*
X149155Y248920D01*
X155645D01*
X156301Y247396D01*
X155159Y245418D01*
X154432Y242705D01*
Y239895D01*
X155159Y237182D01*
X156564Y234750D01*
X158550Y232764D01*
X160982Y231359D01*
X163696Y230632D01*
X166504D01*
X169218Y231359D01*
X171650Y232764D01*
X173636Y234750D01*
X175041Y237182D01*
X175768Y239895D01*
Y242705D01*
X175041Y245418D01*
X173899Y247396D01*
X174555Y248920D01*
X181045D01*
X181701Y247396D01*
X180559Y245418D01*
X179832Y242705D01*
Y239895D01*
X180559Y237182D01*
X181964Y234750D01*
X183950Y232764D01*
X186382Y231359D01*
X189095Y230632D01*
X191905D01*
X194618Y231359D01*
X197050Y232764D01*
X199037Y234750D01*
X200441Y237182D01*
X201168Y239895D01*
Y242705D01*
X200441Y245418D01*
X199299Y247396D01*
X199955Y248920D01*
X206445D01*
X207101Y247396D01*
D02*
G37*
G36*
X626158Y227986D02*
X626386Y227962D01*
X626548Y227854D01*
X627808Y227332D01*
X628652Y226488D01*
X629108Y225386D01*
Y224194D01*
X628652Y223092D01*
X627808Y222248D01*
X626706Y221792D01*
X625514D01*
X624412Y222248D01*
X623568Y223092D01*
X623112Y224194D01*
Y225386D01*
X623568Y226488D01*
X624357Y227277D01*
X624511Y227507D01*
X624532Y227528D01*
X624838Y227759D01*
X626029Y227994D01*
X626158Y227986D01*
D02*
G37*
G36*
X662432Y250456D02*
Y230632D01*
X683260D01*
Y205085D01*
X683197Y204991D01*
X683000Y204000D01*
Y50000D01*
X683197Y49009D01*
X683260Y48915D01*
Y2540D01*
X654486D01*
X654078Y4064D01*
X654250Y4164D01*
X656236Y6150D01*
X657641Y8582D01*
X658368Y11295D01*
Y14104D01*
X657641Y16818D01*
X656236Y19250D01*
X654250Y21237D01*
X651818Y22641D01*
X649105Y23368D01*
X646295D01*
X643582Y22641D01*
X641150Y21237D01*
X639164Y19250D01*
X637759Y16818D01*
X637032Y14104D01*
Y11295D01*
X637759Y8582D01*
X639164Y6150D01*
X641150Y4164D01*
X641322Y4064D01*
X640914Y2540D01*
X629086D01*
X628678Y4064D01*
X628850Y4164D01*
X630836Y6150D01*
X632241Y8582D01*
X632968Y11295D01*
Y14104D01*
X632241Y16818D01*
X630836Y19250D01*
X628850Y21237D01*
X626418Y22641D01*
X623704Y23368D01*
X620896D01*
X618182Y22641D01*
X615750Y21237D01*
X613764Y19250D01*
X612359Y16818D01*
X611632Y14104D01*
Y11295D01*
X612359Y8582D01*
X613764Y6150D01*
X615750Y4164D01*
X615922Y4064D01*
X615514Y2540D01*
X603686D01*
X603278Y4064D01*
X603450Y4164D01*
X605437Y6150D01*
X606841Y8582D01*
X607568Y11295D01*
Y14104D01*
X606841Y16818D01*
X605437Y19250D01*
X603450Y21237D01*
X601018Y22641D01*
X598304Y23368D01*
X595495D01*
X592782Y22641D01*
X590350Y21237D01*
X588363Y19250D01*
X586959Y16818D01*
X586232Y14104D01*
Y11295D01*
X586959Y8582D01*
X588363Y6150D01*
X590350Y4164D01*
X590522Y4064D01*
X590114Y2540D01*
X584200D01*
Y19050D01*
X617220Y52070D01*
X635000D01*
Y69963D01*
X636524Y70266D01*
X637113Y68845D01*
X638685Y67273D01*
X640739Y66422D01*
X642962D01*
X645015Y67273D01*
X646295Y68552D01*
X647575Y67273D01*
X649629Y66422D01*
X651852D01*
X653905Y67273D01*
X655477Y68845D01*
X656328Y70898D01*
Y73122D01*
X655477Y75175D01*
X653905Y76747D01*
X651852Y77598D01*
X649629D01*
X647575Y76747D01*
X646295Y75468D01*
X645015Y76747D01*
X642962Y77598D01*
X640739D01*
X639176Y76951D01*
X638313Y78243D01*
X642620Y82550D01*
Y200660D01*
X510540D01*
X486030Y178054D01*
X485552D01*
X483499Y177203D01*
X481927Y175631D01*
X481076Y173577D01*
Y173485D01*
X474980Y167862D01*
X398392D01*
X379730Y151749D01*
Y124386D01*
X366846Y124191D01*
X365760Y125261D01*
Y129040D01*
X365826Y129540D01*
X365760Y130040D01*
Y137160D01*
X364490D01*
Y161004D01*
X360394Y165100D01*
X302630Y164730D01*
X278130Y189230D01*
X242304D01*
X241322Y190754D01*
X241808Y191929D01*
Y194151D01*
X240957Y196205D01*
X239385Y197777D01*
X237332Y198628D01*
X235109D01*
X233055Y197777D01*
X231483Y196205D01*
X230632Y194151D01*
Y191929D01*
X231119Y190754D01*
X230136Y189230D01*
X207010D01*
Y206981D01*
X208445Y208417D01*
X209296Y210471D01*
Y212694D01*
X208445Y214747D01*
X207010Y216183D01*
Y232948D01*
X208534Y233579D01*
X209350Y232764D01*
X211782Y231359D01*
X214496Y230632D01*
X217304D01*
X220018Y231359D01*
X222450Y232764D01*
X224436Y234750D01*
X225841Y237182D01*
X226568Y239895D01*
Y242705D01*
X225841Y245418D01*
X224436Y247850D01*
X223556Y248731D01*
X224185Y250257D01*
X233050Y250292D01*
X233684Y248771D01*
X232764Y247850D01*
X231359Y245418D01*
X230632Y242705D01*
Y239895D01*
X231359Y237182D01*
X232764Y234750D01*
X234750Y232764D01*
X237182Y231359D01*
X239895Y230632D01*
X242705D01*
X245418Y231359D01*
X247850Y232764D01*
X249837Y234750D01*
X251241Y237182D01*
X251968Y239895D01*
Y242705D01*
X251241Y245418D01*
X249837Y247850D01*
X248856Y248831D01*
X249485Y250357D01*
X258550Y250393D01*
X259184Y248871D01*
X258164Y247850D01*
X256759Y245418D01*
X256032Y242705D01*
Y239895D01*
X256759Y237182D01*
X258164Y234750D01*
X260150Y232764D01*
X262582Y231359D01*
X265296Y230632D01*
X268104D01*
X270818Y231359D01*
X273250Y232764D01*
X275236Y234750D01*
X276641Y237182D01*
X277368Y239895D01*
Y242705D01*
X276641Y245418D01*
X275236Y247850D01*
X274157Y248930D01*
X274786Y250456D01*
X284051Y250493D01*
X284684Y248971D01*
X283563Y247850D01*
X282159Y245418D01*
X281432Y242705D01*
Y239895D01*
X282159Y237182D01*
X283563Y234750D01*
X285550Y232764D01*
X287982Y231359D01*
X290695Y230632D01*
X293505D01*
X296218Y231359D01*
X298650Y232764D01*
X300637Y234750D01*
X302041Y237182D01*
X302768Y239895D01*
Y242705D01*
X302041Y245418D01*
X300637Y247850D01*
X299457Y249029D01*
X300086Y250556D01*
X309551Y250593D01*
X310185Y249072D01*
X308964Y247850D01*
X307559Y245418D01*
X306832Y242705D01*
Y239895D01*
X307559Y237182D01*
X308964Y234750D01*
X310950Y232764D01*
X313382Y231359D01*
X316096Y230632D01*
X318904D01*
X321618Y231359D01*
X324050Y232764D01*
X326036Y234750D01*
X327441Y237182D01*
X328168Y239895D01*
Y242705D01*
X327441Y245418D01*
X326036Y247850D01*
X324758Y249129D01*
X325387Y250655D01*
X335051Y250693D01*
X335685Y249172D01*
X334364Y247850D01*
X332959Y245418D01*
X332232Y242705D01*
Y239895D01*
X332959Y237182D01*
X334364Y234750D01*
X336350Y232764D01*
X338782Y231359D01*
X341496Y230632D01*
X344305D01*
X347018Y231359D01*
X349450Y232764D01*
X351437Y234750D01*
X352841Y237182D01*
X353568Y239895D01*
Y242705D01*
X352841Y245418D01*
X351437Y247850D01*
X350059Y249228D01*
X350687Y250755D01*
X360551Y250793D01*
X361185Y249272D01*
X359763Y247850D01*
X358359Y245418D01*
X357632Y242705D01*
Y239895D01*
X358359Y237182D01*
X359763Y234750D01*
X361750Y232764D01*
X364182Y231359D01*
X366895Y230632D01*
X369705D01*
X372418Y231359D01*
X374850Y232764D01*
X376837Y234750D01*
X378241Y237182D01*
X378968Y239895D01*
Y242705D01*
X378241Y245418D01*
X376837Y247850D01*
X375359Y249328D01*
X375988Y250854D01*
X386052Y250894D01*
X386685Y249372D01*
X385163Y247850D01*
X383759Y245418D01*
X383032Y242705D01*
Y239895D01*
X383759Y237182D01*
X385163Y234750D01*
X387150Y232764D01*
X389582Y231359D01*
X392295Y230632D01*
X395104D01*
X397818Y231359D01*
X400250Y232764D01*
X402237Y234750D01*
X403641Y237182D01*
X404368Y239895D01*
Y242705D01*
X403641Y245418D01*
X402237Y247850D01*
X400660Y249427D01*
X401233Y250953D01*
X411666Y250994D01*
X412186Y249472D01*
X410564Y247850D01*
X409159Y245418D01*
X408432Y242705D01*
Y239895D01*
X409159Y237182D01*
X410564Y234750D01*
X412550Y232764D01*
X414982Y231359D01*
X417696Y230632D01*
X420504D01*
X423218Y231359D01*
X425650Y232764D01*
X427636Y234750D01*
X429041Y237182D01*
X429768Y239895D01*
Y242705D01*
X429041Y245418D01*
X427636Y247850D01*
X425960Y249527D01*
X426394Y251052D01*
X437309Y251095D01*
X437686Y249573D01*
X435964Y247850D01*
X434559Y245418D01*
X433832Y242705D01*
Y239895D01*
X434559Y237182D01*
X435964Y234750D01*
X437950Y232764D01*
X440382Y231359D01*
X443096Y230632D01*
X445905D01*
X448618Y231359D01*
X451050Y232764D01*
X453036Y234750D01*
X454441Y237182D01*
X455168Y239895D01*
Y242705D01*
X454441Y245418D01*
X453036Y247850D01*
X451261Y249626D01*
X451556Y251151D01*
X462952Y251196D01*
X463186Y249673D01*
X461363Y247850D01*
X459959Y245418D01*
X459232Y242705D01*
Y239895D01*
X459959Y237182D01*
X461363Y234750D01*
X463350Y232764D01*
X465782Y231359D01*
X468495Y230632D01*
X471305D01*
X474018Y231359D01*
X476450Y232764D01*
X478437Y234750D01*
X479841Y237182D01*
X480568Y239895D01*
Y242705D01*
X479841Y245418D01*
X478437Y247850D01*
X476561Y249725D01*
X476649Y250583D01*
X476826Y251251D01*
X488228Y251295D01*
X488669Y250062D01*
X488686Y249773D01*
X486763Y247850D01*
X485359Y245418D01*
X484632Y242705D01*
Y239895D01*
X485359Y237182D01*
X486763Y234750D01*
X488750Y232764D01*
X491182Y231359D01*
X493895Y230632D01*
X496704D01*
X499418Y231359D01*
X501850Y232764D01*
X503837Y234750D01*
X505241Y237182D01*
X505968Y239895D01*
Y242705D01*
X505241Y245418D01*
X503837Y247850D01*
X501862Y249825D01*
X501862Y249880D01*
X502276Y251351D01*
X513803Y251396D01*
X514214Y249874D01*
X514150Y249837D01*
X512164Y247850D01*
X510759Y245418D01*
X510032Y242705D01*
Y239895D01*
X510759Y237182D01*
X512164Y234750D01*
X514150Y232764D01*
X516582Y231359D01*
X519296Y230632D01*
X522104D01*
X524818Y231359D01*
X527250Y232764D01*
X529236Y234750D01*
X530641Y237182D01*
X531368Y239895D01*
Y242705D01*
X530641Y245418D01*
X529236Y247850D01*
X527250Y249837D01*
X527099Y249924D01*
X527504Y251450D01*
X539377Y251496D01*
X539788Y249974D01*
X539550Y249837D01*
X537564Y247850D01*
X536159Y245418D01*
X535432Y242705D01*
Y239895D01*
X536159Y237182D01*
X537564Y234750D01*
X539550Y232764D01*
X541982Y231359D01*
X544696Y230632D01*
X547505D01*
X550218Y231359D01*
X552650Y232764D01*
X554636Y234750D01*
X556041Y237182D01*
X556768Y239895D01*
Y242705D01*
X556041Y245418D01*
X554636Y247850D01*
X552650Y249837D01*
X552327Y250023D01*
X552732Y251549D01*
X564951Y251597D01*
X565362Y250075D01*
X564950Y249837D01*
X562963Y247850D01*
X561559Y245418D01*
X560832Y242705D01*
Y239895D01*
X561559Y237182D01*
X562963Y234750D01*
X564950Y232764D01*
X567382Y231359D01*
X570095Y230632D01*
X572905D01*
X575618Y231359D01*
X578050Y232764D01*
X580037Y234750D01*
X581441Y237182D01*
X582168Y239895D01*
Y242705D01*
X581441Y245418D01*
X580037Y247850D01*
X578050Y249837D01*
X577555Y250123D01*
X577961Y251648D01*
X590525Y251698D01*
X590936Y250175D01*
X590350Y249837D01*
X588363Y247850D01*
X586959Y245418D01*
X586232Y242705D01*
Y239895D01*
X586959Y237182D01*
X588363Y234750D01*
X590350Y232764D01*
X592782Y231359D01*
X595495Y230632D01*
X598304D01*
X601018Y231359D01*
X603450Y232764D01*
X605437Y234750D01*
X606841Y237182D01*
X607568Y239895D01*
Y242705D01*
X606841Y245418D01*
X605437Y247850D01*
X603450Y249837D01*
X602783Y250222D01*
X603189Y251747D01*
X616099Y251798D01*
X616510Y250276D01*
X615750Y249837D01*
X613764Y247850D01*
X612359Y245418D01*
X611632Y242705D01*
Y239895D01*
X612359Y237182D01*
X613764Y234750D01*
X615750Y232764D01*
X618182Y231359D01*
X620896Y230632D01*
X621932D01*
X622525Y229108D01*
X621373Y227955D01*
X620522Y225902D01*
Y223678D01*
X621373Y221625D01*
X622945Y220053D01*
X624999Y219202D01*
X627221D01*
X629275Y220053D01*
X630847Y221625D01*
X631698Y223678D01*
Y225902D01*
X630847Y227955D01*
X629275Y229527D01*
X627539Y230247D01*
X627272Y231323D01*
X627301Y231869D01*
X628850Y232764D01*
X630836Y234750D01*
X632241Y237182D01*
X632968Y239895D01*
Y242705D01*
X632241Y245418D01*
X630836Y247850D01*
X628850Y249837D01*
X628012Y250321D01*
X628417Y251846D01*
X659347Y251968D01*
X660910Y251974D01*
X662432Y250456D01*
D02*
G37*
G36*
X640030Y187927D02*
X638506Y187624D01*
X638213Y188331D01*
X636641Y189903D01*
X634588Y190754D01*
X632365D01*
X630311Y189903D01*
X628739Y188331D01*
X627888Y186278D01*
Y184055D01*
X628739Y182001D01*
X630311Y180429D01*
X632365Y179578D01*
X634588D01*
X636641Y180429D01*
X638213Y182001D01*
X638506Y182708D01*
X640030Y182405D01*
Y87194D01*
X638506Y86891D01*
X638467Y86985D01*
X636895Y88557D01*
X634841Y89408D01*
X632618D01*
X630565Y88557D01*
X628993Y86985D01*
X628142Y84931D01*
Y82709D01*
X628993Y80655D01*
X630565Y79083D01*
X632618Y78232D01*
X634841D01*
X635920Y77252D01*
X636062Y77040D01*
X636160Y76804D01*
X637023Y75512D01*
X637203Y75332D01*
X637345Y75120D01*
X637557Y74978D01*
X637737Y74798D01*
X637973Y74700D01*
X638185Y74558D01*
X638435Y74509D01*
X638671Y74411D01*
X638926D01*
X639176Y74361D01*
X639426Y74411D01*
X639681D01*
X639917Y74509D01*
X640167Y74558D01*
X641254Y75008D01*
X642446D01*
X643548Y74552D01*
X644464Y73636D01*
X645304Y73075D01*
X646295Y72878D01*
X647286Y73075D01*
X648126Y73636D01*
X649042Y74552D01*
X650144Y75008D01*
X651336D01*
X652438Y74552D01*
X653282Y73708D01*
X653738Y72606D01*
Y71414D01*
X653282Y70312D01*
X652438Y69468D01*
X651336Y69012D01*
X650144D01*
X649042Y69468D01*
X648126Y70384D01*
X647286Y70945D01*
X646295Y71142D01*
X645304Y70945D01*
X644464Y70384D01*
X643548Y69468D01*
X642446Y69012D01*
X641254D01*
X640152Y69468D01*
X639308Y70312D01*
X638917Y71257D01*
X638775Y71469D01*
X638677Y71705D01*
X638497Y71885D01*
X638355Y72097D01*
X638143Y72239D01*
X637963Y72419D01*
X637727Y72517D01*
X637515Y72659D01*
X637265Y72708D01*
X637029Y72806D01*
X636774D01*
X636524Y72856D01*
X636274Y72806D01*
X636019D01*
X634495Y72503D01*
X634259Y72405D01*
X634009Y72355D01*
X633797Y72214D01*
X633561Y72116D01*
X633381Y71936D01*
X633169Y71794D01*
X633027Y71582D01*
X632847Y71402D01*
X632749Y71166D01*
X632607Y70954D01*
X632558Y70704D01*
X632452Y70563D01*
X632277Y70554D01*
X630928Y71852D01*
X630077Y73905D01*
X628505Y75477D01*
X626451Y76328D01*
X624229D01*
X622175Y75477D01*
X620603Y73905D01*
X619752Y71852D01*
Y69629D01*
X620603Y67575D01*
X622175Y66003D01*
X624229Y65152D01*
X626451D01*
X628505Y66003D01*
X630077Y67575D01*
X630622Y68890D01*
X630928Y69628D01*
X632410Y69528D01*
X632410Y68689D01*
Y54660D01*
X617220D01*
X616229Y54463D01*
X615389Y53901D01*
X582369Y20881D01*
X581807Y20041D01*
X581688Y19439D01*
X580544Y19097D01*
X580114Y19116D01*
X580037Y19250D01*
X578050Y21237D01*
X575618Y22641D01*
X572905Y23368D01*
X570095D01*
X567382Y22641D01*
X564950Y21237D01*
X562963Y19250D01*
X561559Y16818D01*
X560832Y14104D01*
Y11295D01*
X561559Y8582D01*
X562701Y6604D01*
X562045Y5080D01*
X555555D01*
X554899Y6604D01*
X556041Y8582D01*
X556768Y11295D01*
Y14104D01*
X556041Y16818D01*
X554636Y19250D01*
X552650Y21237D01*
X550218Y22641D01*
X547505Y23368D01*
X544696D01*
X541982Y22641D01*
X539550Y21237D01*
X537564Y19250D01*
X536159Y16818D01*
X535432Y14104D01*
Y11295D01*
X536159Y8582D01*
X537301Y6604D01*
X536645Y5080D01*
X530155D01*
X529499Y6604D01*
X530641Y8582D01*
X531368Y11295D01*
Y14104D01*
X530641Y16818D01*
X529236Y19250D01*
X527250Y21237D01*
X524818Y22641D01*
X522104Y23368D01*
X519296D01*
X516582Y22641D01*
X514150Y21237D01*
X512164Y19250D01*
X510759Y16818D01*
X510032Y14104D01*
Y11295D01*
X510759Y8582D01*
X511901Y6604D01*
X511245Y5080D01*
X504755D01*
X504099Y6604D01*
X505241Y8582D01*
X505968Y11295D01*
Y14104D01*
X505241Y16818D01*
X503837Y19250D01*
X501850Y21237D01*
X499418Y22641D01*
X496704Y23368D01*
X493895D01*
X491182Y22641D01*
X488750Y21237D01*
X486763Y19250D01*
X485359Y16818D01*
X484632Y14104D01*
Y11295D01*
X485359Y8582D01*
X486501Y6604D01*
X485845Y5080D01*
X479355D01*
X478699Y6604D01*
X479841Y8582D01*
X480568Y11295D01*
Y14104D01*
X479841Y16818D01*
X478437Y19250D01*
X476450Y21237D01*
X474018Y22641D01*
X471305Y23368D01*
X468495D01*
X465782Y22641D01*
X463350Y21237D01*
X461363Y19250D01*
X459959Y16818D01*
X459232Y14104D01*
Y11295D01*
X459959Y8582D01*
X461101Y6604D01*
X460445Y5080D01*
X453955D01*
X453299Y6604D01*
X454441Y8582D01*
X455168Y11295D01*
Y14104D01*
X454441Y16818D01*
X453036Y19250D01*
X451050Y21237D01*
X448618Y22641D01*
X445905Y23368D01*
X443096D01*
X440382Y22641D01*
X437950Y21237D01*
X435964Y19250D01*
X434559Y16818D01*
X433832Y14104D01*
Y11295D01*
X434559Y8582D01*
X435701Y6604D01*
X435045Y5080D01*
X428555D01*
X427899Y6604D01*
X429041Y8582D01*
X429768Y11295D01*
Y14104D01*
X429041Y16818D01*
X427636Y19250D01*
X425650Y21237D01*
X423218Y22641D01*
X420504Y23368D01*
X417696D01*
X414982Y22641D01*
X412550Y21237D01*
X410564Y19250D01*
X409159Y16818D01*
X408432Y14104D01*
Y11295D01*
X409159Y8582D01*
X410301Y6604D01*
X409645Y5080D01*
X403155D01*
X402499Y6604D01*
X403641Y8582D01*
X404368Y11295D01*
Y14104D01*
X403641Y16818D01*
X402237Y19250D01*
X400250Y21237D01*
X397818Y22641D01*
X395104Y23368D01*
X392295D01*
X389582Y22641D01*
X387150Y21237D01*
X385163Y19250D01*
X383759Y16818D01*
X383032Y14104D01*
Y11295D01*
X383759Y8582D01*
X384901Y6604D01*
X384245Y5080D01*
X377755D01*
X377099Y6604D01*
X378241Y8582D01*
X378968Y11295D01*
Y14104D01*
X378241Y16818D01*
X376837Y19250D01*
X374850Y21237D01*
X372418Y22641D01*
X369705Y23368D01*
X366895D01*
X364182Y22641D01*
X361750Y21237D01*
X359763Y19250D01*
X358359Y16818D01*
X357632Y14104D01*
Y11295D01*
X358359Y8582D01*
X359501Y6604D01*
X358845Y5080D01*
X352355D01*
X351699Y6604D01*
X352841Y8582D01*
X353568Y11295D01*
Y14104D01*
X352841Y16818D01*
X351437Y19250D01*
X349450Y21237D01*
X347018Y22641D01*
X344305Y23368D01*
X341496D01*
X338782Y22641D01*
X336350Y21237D01*
X334364Y19250D01*
X332959Y16818D01*
X332232Y14104D01*
Y11295D01*
X332959Y8582D01*
X334101Y6604D01*
X333445Y5080D01*
X326955D01*
X326299Y6604D01*
X327441Y8582D01*
X328168Y11295D01*
Y14104D01*
X327441Y16818D01*
X326036Y19250D01*
X324050Y21237D01*
X321618Y22641D01*
X318904Y23368D01*
X316096D01*
X313382Y22641D01*
X310950Y21237D01*
X308964Y19250D01*
X307559Y16818D01*
X306832Y14104D01*
Y11295D01*
X307559Y8582D01*
X308701Y6604D01*
X308045Y5080D01*
X301555D01*
X300899Y6604D01*
X302041Y8582D01*
X302768Y11295D01*
Y14104D01*
X302041Y16818D01*
X300637Y19250D01*
X298650Y21237D01*
X296218Y22641D01*
X293505Y23368D01*
X290695D01*
X287982Y22641D01*
X285550Y21237D01*
X283563Y19250D01*
X282159Y16818D01*
X281432Y14104D01*
Y11295D01*
X282159Y8582D01*
X283301Y6604D01*
X282645Y5080D01*
X276155D01*
X275499Y6604D01*
X276641Y8582D01*
X277368Y11295D01*
Y14104D01*
X276641Y16818D01*
X275236Y19250D01*
X273250Y21237D01*
X270818Y22641D01*
X268104Y23368D01*
X265296D01*
X262582Y22641D01*
X260150Y21237D01*
X258164Y19250D01*
X256759Y16818D01*
X256032Y14104D01*
Y11295D01*
X256759Y8582D01*
X257901Y6604D01*
X257245Y5080D01*
X250755D01*
X250099Y6604D01*
X251241Y8582D01*
X251968Y11295D01*
Y14104D01*
X251241Y16818D01*
X249837Y19250D01*
X247850Y21237D01*
X247733Y21305D01*
X247726Y21422D01*
X248098Y22853D01*
X249639Y23056D01*
X251493Y23824D01*
X253085Y25045D01*
X292963Y64923D01*
X294184Y66515D01*
X294952Y68369D01*
X295214Y70358D01*
Y82261D01*
X316950Y103998D01*
X340283D01*
X342273Y104260D01*
X344126Y105027D01*
X345718Y106249D01*
X361389Y121920D01*
X365677D01*
X365873Y121791D01*
X365883Y121789D01*
X365891Y121784D01*
X366378Y121695D01*
X366865Y121601D01*
X366875Y121603D01*
X366885Y121602D01*
X379769Y121797D01*
X380244Y121899D01*
X380721Y121994D01*
X380738Y122005D01*
X380757Y122009D01*
X381157Y122285D01*
X381561Y122555D01*
X381572Y122572D01*
X381589Y122583D01*
X381852Y122991D01*
X382123Y123395D01*
X382127Y123415D01*
X382137Y123432D01*
X382225Y123909D01*
X382320Y124386D01*
Y150564D01*
X399355Y165273D01*
X413787D01*
X414418Y163748D01*
X413601Y162931D01*
X412750Y160877D01*
Y158654D01*
X413601Y156601D01*
X415173Y155029D01*
X417226Y154178D01*
X419450D01*
X421503Y155029D01*
X423075Y156601D01*
X423647Y156714D01*
X423809Y156553D01*
X425863Y155702D01*
X428086D01*
X430139Y156553D01*
X431711Y158125D01*
X432562Y160179D01*
Y162402D01*
X432004Y163748D01*
X432885Y165273D01*
X458912D01*
Y157190D01*
X457388Y156558D01*
X457317Y156629D01*
X455263Y157480D01*
X453041D01*
X450987Y156629D01*
X449415Y155057D01*
X448564Y153004D01*
Y150780D01*
X449415Y148727D01*
X450987Y147155D01*
X453041Y146304D01*
X455263D01*
X457317Y147155D01*
X457388Y147226D01*
X458912Y146594D01*
Y101689D01*
X457645Y100842D01*
X457042Y101092D01*
X454818D01*
X452765Y100241D01*
X451193Y98669D01*
X450342Y96615D01*
Y94392D01*
X451193Y92339D01*
X452765Y90767D01*
X454818Y89916D01*
X457042D01*
X457645Y90166D01*
X458912Y89319D01*
Y82431D01*
X456556Y80076D01*
X436880D01*
X434891Y79814D01*
X433037Y79046D01*
X431445Y77825D01*
X430224Y76233D01*
X429456Y74379D01*
X429194Y72390D01*
X429456Y70401D01*
X430224Y68547D01*
X431445Y66955D01*
X433037Y65734D01*
X434891Y64966D01*
X436880Y64704D01*
X456556D01*
X469545Y51715D01*
X471137Y50494D01*
X472991Y49726D01*
X474980Y49464D01*
X476969Y49726D01*
X478823Y50494D01*
X480415Y51715D01*
X481636Y53307D01*
X482404Y55161D01*
X482666Y57150D01*
X482404Y59139D01*
X481636Y60993D01*
X480415Y62585D01*
X470609Y72390D01*
X472033Y73813D01*
X472033Y73813D01*
X473254Y75405D01*
X474022Y77259D01*
X474284Y79248D01*
X474284Y79248D01*
Y143503D01*
X475808Y144521D01*
X476409Y144272D01*
X478632D01*
X480685Y145123D01*
X482257Y146695D01*
X483108Y148749D01*
Y150971D01*
X484496Y151604D01*
X486019Y152235D01*
X487591Y153807D01*
X488442Y155861D01*
Y158083D01*
X487591Y160137D01*
X486019Y161709D01*
X483965Y162560D01*
X481743D01*
X479689Y161709D01*
X478117Y160137D01*
X477266Y158083D01*
Y155861D01*
X475878Y155228D01*
X475808Y155199D01*
X474284Y156217D01*
Y165273D01*
X474980D01*
X475425Y165361D01*
X475874Y165432D01*
X475919Y165459D01*
X475971Y165470D01*
X476348Y165722D01*
X476736Y165959D01*
X482832Y171581D01*
X482863Y171624D01*
X482907Y171653D01*
X483159Y172031D01*
X483427Y172398D01*
X483439Y172450D01*
X483469Y172494D01*
X483504Y172672D01*
X484122Y174164D01*
X484966Y175008D01*
X486102Y175479D01*
X486475Y175553D01*
X486924Y175623D01*
X486969Y175651D01*
X487021Y175661D01*
X487398Y175914D01*
X487786Y176150D01*
X511552Y198070D01*
X640030D01*
Y187927D01*
D02*
G37*
G36*
X174244Y37012D02*
Y32512D01*
X117856D01*
Y38177D01*
X122136Y40410D01*
X122291Y40475D01*
X122326Y40510D01*
X125984Y42418D01*
X131572D01*
X137668Y48514D01*
X174244D01*
Y37012D01*
D02*
G37*
G36*
X650818Y20228D02*
X652660Y19164D01*
X654164Y17660D01*
X655228Y15818D01*
X655778Y13764D01*
Y11637D01*
X655228Y9582D01*
X654164Y7740D01*
X652583Y6159D01*
X652502Y6119D01*
X652278Y5864D01*
X652023Y5641D01*
X651948Y5487D01*
X651835Y5359D01*
X651741Y5080D01*
X643659D01*
X643565Y5359D01*
X643452Y5487D01*
X643377Y5641D01*
X643122Y5864D01*
X642898Y6119D01*
X642817Y6159D01*
X641236Y7740D01*
X640172Y9582D01*
X639622Y11637D01*
Y13764D01*
X640172Y15818D01*
X641236Y17660D01*
X642740Y19164D01*
X644582Y20228D01*
X646637Y20778D01*
X648764D01*
X650818Y20228D01*
D02*
G37*
%LPC*%
G36*
X94482Y199898D02*
X92462D01*
X90594Y199125D01*
X89165Y197696D01*
X87546Y197768D01*
X87206Y198109D01*
X85338Y198882D01*
X83317D01*
X81450Y198109D01*
X80021Y196680D01*
X79248Y194813D01*
Y192792D01*
X80021Y190924D01*
X81450Y189495D01*
X83317Y188722D01*
X85338D01*
X87206Y189495D01*
X88635Y190924D01*
X90254Y190852D01*
X90594Y190511D01*
X92462Y189738D01*
X94482D01*
X96350Y190511D01*
X97779Y191940D01*
X98552Y193808D01*
Y195828D01*
X97779Y197696D01*
X96350Y199125D01*
X94482Y199898D01*
D02*
G37*
G36*
X123693Y201549D02*
X121671D01*
X119804Y200776D01*
X118375Y199347D01*
X117602Y197479D01*
Y195459D01*
X118375Y193591D01*
X119562Y192405D01*
X118375Y191219D01*
X117602Y189352D01*
Y187330D01*
X118375Y185463D01*
X119804Y184034D01*
X121671Y183261D01*
X123693D01*
X125560Y184034D01*
X126989Y185463D01*
X127762Y187330D01*
Y189352D01*
X126989Y191219D01*
X125802Y192405D01*
X126989Y193591D01*
X127762Y195459D01*
Y197479D01*
X126989Y199347D01*
X125560Y200776D01*
X123693Y201549D01*
D02*
G37*
G36*
X215176Y184658D02*
X212953D01*
X210900Y183807D01*
X209328Y182235D01*
X208477Y180182D01*
Y177959D01*
X209328Y175905D01*
X210900Y174333D01*
X212953Y173482D01*
X215176D01*
X217230Y174333D01*
X218802Y175905D01*
X219653Y177959D01*
Y180182D01*
X218802Y182235D01*
X217230Y183807D01*
X215176Y184658D01*
D02*
G37*
G36*
X163503Y172806D02*
X161280D01*
X159227Y171955D01*
X157655Y170383D01*
X156804Y168330D01*
Y166106D01*
X157655Y164053D01*
X159227Y162481D01*
X161280Y161630D01*
X163503D01*
X165557Y162481D01*
X167129Y164053D01*
X167980Y166106D01*
Y168330D01*
X167129Y170383D01*
X165557Y171955D01*
X163503Y172806D01*
D02*
G37*
G36*
X101600Y147320D02*
X86360D01*
Y132080D01*
X86360D01*
X87234Y130556D01*
X86879Y129941D01*
X86360Y128003D01*
Y125997D01*
X86879Y124059D01*
X87882Y122321D01*
X88516Y121687D01*
X89148Y120650D01*
X88516Y119613D01*
X87882Y118979D01*
X86879Y117241D01*
X86360Y115303D01*
Y113297D01*
X86879Y111359D01*
X87882Y109621D01*
X89301Y108202D01*
X91039Y107199D01*
X92977Y106680D01*
X94983D01*
X96921Y107199D01*
X98659Y108202D01*
X100077Y109621D01*
X101081Y111359D01*
X101600Y113297D01*
Y115303D01*
X101081Y117241D01*
X100077Y118979D01*
X99444Y119613D01*
X98813Y120650D01*
X99444Y121687D01*
X100077Y122321D01*
X101081Y124059D01*
X101600Y125997D01*
Y128003D01*
X101081Y129941D01*
X100726Y130556D01*
X101600Y132080D01*
X101600D01*
Y147320D01*
D02*
G37*
G36*
X153511Y140970D02*
X151288D01*
X149235Y140119D01*
X147663Y138547D01*
X146812Y136494D01*
Y134270D01*
X147663Y132217D01*
X149235Y130645D01*
X151288Y129794D01*
X153511D01*
X155565Y130645D01*
X157137Y132217D01*
X157988Y134270D01*
Y136494D01*
X157137Y138547D01*
X155565Y140119D01*
X153511Y140970D01*
D02*
G37*
G36*
X195067Y52832D02*
X193046D01*
X191178Y52059D01*
X189992Y50872D01*
X188806Y52059D01*
X186938Y52832D01*
X184918D01*
X183050Y52059D01*
X181621Y50630D01*
X180848Y48762D01*
Y46741D01*
X181621Y44874D01*
X183050Y43445D01*
X184918Y42672D01*
X186938D01*
X188806Y43445D01*
X189992Y44632D01*
X191178Y43445D01*
X193046Y42672D01*
X195067D01*
X196934Y43445D01*
X198363Y44874D01*
X199136Y46741D01*
Y48762D01*
X198363Y50630D01*
X196934Y52059D01*
X195067Y52832D01*
D02*
G37*
G36*
X377032Y224028D02*
X374809D01*
X372755Y223177D01*
X371183Y221605D01*
X370332Y219552D01*
Y217328D01*
X371183Y215275D01*
X372755Y213703D01*
X374809Y212852D01*
X377032D01*
X379085Y213703D01*
X380657Y215275D01*
X381508Y217328D01*
Y219552D01*
X380657Y221605D01*
X379085Y223177D01*
X377032Y224028D01*
D02*
G37*
G36*
X302101Y216408D02*
X299879D01*
X297825Y215557D01*
X296253Y213985D01*
X295402Y211931D01*
Y209708D01*
X296253Y207655D01*
X297825Y206083D01*
X299879Y205232D01*
X302101D01*
X304155Y206083D01*
X305727Y207655D01*
X306578Y209708D01*
Y211931D01*
X305727Y213985D01*
X304155Y215557D01*
X302101Y216408D01*
D02*
G37*
G36*
X658971Y213868D02*
X656749D01*
X654695Y213017D01*
X653123Y211445D01*
X652272Y209391D01*
Y207169D01*
X653123Y205115D01*
X654695Y203543D01*
X656749Y202692D01*
X658971D01*
X661025Y203543D01*
X662597Y205115D01*
X663448Y207169D01*
Y209391D01*
X662597Y211445D01*
X661025Y213017D01*
X658971Y213868D01*
D02*
G37*
G36*
X666972Y191508D02*
X664749D01*
X662695Y190657D01*
X661123Y189085D01*
X660836Y188394D01*
X659742Y188848D01*
X657518D01*
X655465Y187997D01*
X653893Y186425D01*
X653042Y184371D01*
Y182148D01*
X653893Y180095D01*
X655465Y178523D01*
X657518Y177672D01*
X659742D01*
X660607Y176381D01*
X661123Y175135D01*
X662402Y173855D01*
X661123Y172575D01*
X660272Y170522D01*
Y168298D01*
X661123Y166245D01*
X661767Y165600D01*
X661123Y164955D01*
X660272Y162901D01*
Y160679D01*
X661123Y158625D01*
X662402Y157345D01*
X661123Y156065D01*
X660272Y154011D01*
Y151789D01*
X661123Y149735D01*
X662402Y148455D01*
X661123Y147175D01*
X660272Y145121D01*
Y142899D01*
X661123Y140845D01*
X662402Y139565D01*
X661123Y138285D01*
X660272Y136231D01*
Y134009D01*
X661123Y131955D01*
X661767Y131310D01*
X661123Y130665D01*
X660272Y128611D01*
Y126389D01*
X661123Y124335D01*
X662402Y123055D01*
X661123Y121775D01*
X660272Y119721D01*
Y117499D01*
X661123Y115445D01*
X661767Y114800D01*
X661123Y114155D01*
X660272Y112101D01*
Y109879D01*
X661123Y107825D01*
X662402Y106545D01*
X661123Y105265D01*
X660272Y103211D01*
Y100989D01*
X661123Y98935D01*
X662402Y97655D01*
X661123Y96375D01*
X660272Y94321D01*
Y92099D01*
X661123Y90045D01*
X662402Y88765D01*
X661123Y87485D01*
X660272Y85431D01*
Y83209D01*
X661123Y81155D01*
X661767Y80510D01*
X661123Y79865D01*
X660272Y77811D01*
Y75588D01*
X661123Y73535D01*
X662402Y72255D01*
X661123Y70975D01*
X660272Y68921D01*
Y66698D01*
X661123Y64645D01*
X662695Y63073D01*
X664749Y62222D01*
X666972D01*
X669025Y63073D01*
X670597Y64645D01*
X671448Y66698D01*
Y68921D01*
X670597Y70975D01*
X669318Y72255D01*
X670597Y73535D01*
X671448Y75588D01*
Y77811D01*
X670597Y79865D01*
X669953Y80510D01*
X670597Y81155D01*
X671448Y83209D01*
Y85431D01*
X670597Y87485D01*
X669318Y88765D01*
X670597Y90045D01*
X671448Y92099D01*
Y94321D01*
X670597Y96375D01*
X669318Y97655D01*
X670597Y98935D01*
X671448Y100989D01*
Y103211D01*
X670597Y105265D01*
X669318Y106545D01*
X670597Y107825D01*
X671448Y109879D01*
Y112101D01*
X670597Y114155D01*
X669953Y114800D01*
X670597Y115445D01*
X671448Y117499D01*
Y119721D01*
X670597Y121775D01*
X669318Y123055D01*
X670597Y124335D01*
X671448Y126389D01*
Y128611D01*
X670597Y130665D01*
X669953Y131310D01*
X670597Y131955D01*
X671448Y134009D01*
Y136231D01*
X670597Y138285D01*
X669318Y139565D01*
X670597Y140845D01*
X671448Y142899D01*
Y145121D01*
X670597Y147175D01*
X669318Y148455D01*
X670597Y149735D01*
X671448Y151789D01*
Y154011D01*
X670597Y156065D01*
X669318Y157345D01*
X670597Y158625D01*
X671448Y160679D01*
Y162901D01*
X670597Y164955D01*
X669953Y165600D01*
X670597Y166245D01*
X671448Y168298D01*
Y170522D01*
X670597Y172575D01*
X669318Y173855D01*
X670597Y175135D01*
X671448Y177188D01*
Y179412D01*
X670597Y181465D01*
X669953Y182110D01*
X670597Y182755D01*
X671448Y184809D01*
Y187031D01*
X670597Y189085D01*
X669025Y190657D01*
X666972Y191508D01*
D02*
G37*
G36*
X675481Y51308D02*
X673259D01*
X671205Y50457D01*
X669633Y48885D01*
X668782Y46831D01*
Y44608D01*
X669633Y42555D01*
X671205Y40983D01*
X673259Y40132D01*
X675481D01*
X677535Y40983D01*
X679107Y42555D01*
X679958Y44608D01*
Y46831D01*
X679107Y48885D01*
X677535Y50457D01*
X675481Y51308D01*
D02*
G37*
%LPD*%
G36*
X377618Y220982D02*
X378462Y220138D01*
X378918Y219036D01*
Y217844D01*
X378462Y216742D01*
X377618Y215898D01*
X376516Y215442D01*
X375324D01*
X374222Y215898D01*
X373378Y216742D01*
X372922Y217844D01*
Y219036D01*
X373378Y220138D01*
X374222Y220982D01*
X375324Y221438D01*
X376516D01*
X377618Y220982D01*
D02*
G37*
G36*
X302688Y213362D02*
X303532Y212518D01*
X303988Y211416D01*
Y210224D01*
X303532Y209122D01*
X302688Y208278D01*
X301586Y207822D01*
X300394D01*
X299292Y208278D01*
X298448Y209122D01*
X297992Y210224D01*
Y211416D01*
X298448Y212518D01*
X299292Y213362D01*
X300394Y213818D01*
X301586D01*
X302688Y213362D01*
D02*
G37*
G36*
X659438Y210872D02*
X660452Y209858D01*
X660858Y208876D01*
Y207684D01*
X660402Y206582D01*
X659558Y205738D01*
X658456Y205282D01*
X657264D01*
X656162Y205738D01*
X655318Y206582D01*
X654862Y207684D01*
Y208876D01*
X655318Y209978D01*
X656162Y210822D01*
X657264Y211278D01*
X658456D01*
X659438Y210872D01*
D02*
G37*
G36*
X667558Y188462D02*
X668402Y187618D01*
X668809Y186637D01*
Y185203D01*
X668402Y184222D01*
X668121Y183941D01*
X667560Y183101D01*
X667363Y182110D01*
X667560Y181119D01*
X668121Y180279D01*
X668402Y179998D01*
X668809Y179016D01*
Y177584D01*
X668402Y176602D01*
X667486Y175686D01*
X666925Y174846D01*
X666728Y173855D01*
X666925Y172864D01*
X667486Y172024D01*
X668402Y171108D01*
X668809Y170126D01*
Y168694D01*
X668402Y167712D01*
X668121Y167431D01*
X667560Y166591D01*
X667363Y165600D01*
X667560Y164609D01*
X668121Y163769D01*
X668402Y163488D01*
X668809Y162507D01*
Y161073D01*
X668402Y160092D01*
X667486Y159176D01*
X666925Y158336D01*
X666728Y157345D01*
X666925Y156354D01*
X667486Y155514D01*
X668402Y154598D01*
X668809Y153617D01*
Y152184D01*
X668402Y151202D01*
X667486Y150286D01*
X666925Y149446D01*
X666728Y148455D01*
X666925Y147464D01*
X667486Y146624D01*
X668402Y145708D01*
X668809Y144726D01*
Y143294D01*
X668402Y142312D01*
X667486Y141396D01*
X666925Y140556D01*
X666728Y139565D01*
X666925Y138574D01*
X667486Y137734D01*
X668402Y136818D01*
X668809Y135836D01*
Y134403D01*
X668402Y133422D01*
X668121Y133141D01*
X667560Y132301D01*
X667363Y131310D01*
X667560Y130319D01*
X668121Y129479D01*
X668402Y129198D01*
X668809Y128216D01*
Y126784D01*
X668402Y125802D01*
X667486Y124886D01*
X666925Y124046D01*
X666728Y123055D01*
X666925Y122064D01*
X667486Y121224D01*
X668402Y120308D01*
X668809Y119326D01*
Y117893D01*
X668402Y116912D01*
X668121Y116631D01*
X667560Y115791D01*
X667363Y114800D01*
X667560Y113809D01*
X668121Y112969D01*
X668402Y112688D01*
X668809Y111706D01*
Y110274D01*
X668402Y109292D01*
X667486Y108376D01*
X666925Y107536D01*
X666728Y106545D01*
X666925Y105554D01*
X667486Y104714D01*
X668402Y103798D01*
X668809Y102816D01*
Y101383D01*
X668402Y100402D01*
X667486Y99486D01*
X666925Y98646D01*
X666728Y97655D01*
X666925Y96664D01*
X667486Y95824D01*
X668402Y94908D01*
X668809Y93926D01*
Y92493D01*
X668402Y91512D01*
X667486Y90596D01*
X666925Y89756D01*
X666728Y88765D01*
X666925Y87774D01*
X667486Y86934D01*
X668402Y86018D01*
X668809Y85036D01*
Y83603D01*
X668402Y82622D01*
X668121Y82341D01*
X667560Y81501D01*
X667363Y80510D01*
X667560Y79519D01*
X668121Y78679D01*
X668402Y78398D01*
X668809Y77417D01*
Y75984D01*
X668402Y75002D01*
X667486Y74086D01*
X666925Y73246D01*
X666728Y72255D01*
X666925Y71264D01*
X667486Y70424D01*
X668402Y69508D01*
X668809Y68527D01*
Y67094D01*
X668452Y66232D01*
X667438Y65219D01*
X666456Y64812D01*
X665264D01*
X664162Y65268D01*
X663318Y66112D01*
X662862Y67214D01*
Y68406D01*
X663318Y69508D01*
X664234Y70424D01*
X664795Y71264D01*
X664992Y72255D01*
X664795Y73246D01*
X664234Y74086D01*
X663318Y75002D01*
X662862Y76104D01*
Y77296D01*
X663318Y78398D01*
X663599Y78679D01*
X664160Y79519D01*
X664357Y80510D01*
X664160Y81501D01*
X663599Y82341D01*
X663318Y82622D01*
X662862Y83724D01*
Y84916D01*
X663318Y86018D01*
X664234Y86934D01*
X664795Y87774D01*
X664992Y88765D01*
X664795Y89756D01*
X664234Y90596D01*
X663318Y91512D01*
X662862Y92614D01*
Y93806D01*
X663318Y94908D01*
X664234Y95824D01*
X664795Y96664D01*
X664992Y97655D01*
X664795Y98646D01*
X664234Y99486D01*
X663318Y100402D01*
X662862Y101504D01*
Y102696D01*
X663318Y103798D01*
X664234Y104714D01*
X664795Y105554D01*
X664992Y106545D01*
X664795Y107536D01*
X664234Y108376D01*
X663318Y109292D01*
X662862Y110394D01*
Y111586D01*
X663318Y112688D01*
X663599Y112969D01*
X664160Y113809D01*
X664357Y114800D01*
X664160Y115791D01*
X663599Y116631D01*
X663318Y116912D01*
X662862Y118014D01*
Y119206D01*
X663318Y120308D01*
X664234Y121224D01*
X664795Y122064D01*
X664992Y123055D01*
X664795Y124046D01*
X664234Y124886D01*
X663318Y125802D01*
X662862Y126904D01*
Y128096D01*
X663318Y129198D01*
X663599Y129479D01*
X664160Y130319D01*
X664357Y131310D01*
X664160Y132301D01*
X663599Y133141D01*
X663318Y133422D01*
X662862Y134524D01*
Y135716D01*
X663318Y136818D01*
X664234Y137734D01*
X664795Y138574D01*
X664992Y139565D01*
X664795Y140556D01*
X664234Y141396D01*
X663318Y142312D01*
X662862Y143414D01*
Y144606D01*
X663318Y145708D01*
X664234Y146624D01*
X664795Y147464D01*
X664992Y148455D01*
X664795Y149446D01*
X664234Y150286D01*
X663318Y151202D01*
X662862Y152304D01*
Y153496D01*
X663318Y154598D01*
X664234Y155514D01*
X664795Y156354D01*
X664992Y157345D01*
X664795Y158336D01*
X664234Y159176D01*
X663318Y160092D01*
X662862Y161194D01*
Y162386D01*
X663318Y163488D01*
X663599Y163769D01*
X664160Y164609D01*
X664357Y165600D01*
X664160Y166591D01*
X663599Y167431D01*
X663318Y167712D01*
X662862Y168814D01*
Y170006D01*
X663318Y171108D01*
X664234Y172024D01*
X664795Y172864D01*
X664992Y173855D01*
X664795Y174846D01*
X664234Y175686D01*
X663318Y176602D01*
X662999Y177372D01*
X662857Y177585D01*
X662758Y177822D01*
X661893Y179113D01*
X661714Y179293D01*
X661573Y179503D01*
X661359Y179646D01*
X661178Y179827D01*
X660943Y179924D01*
X660733Y180065D01*
X660481Y180115D01*
X660244Y180213D01*
X659990Y180212D01*
X659742Y180262D01*
X658034D01*
X656932Y180718D01*
X656088Y181562D01*
X655632Y182664D01*
Y183856D01*
X656088Y184958D01*
X656932Y185802D01*
X658034Y186258D01*
X659226D01*
X659846Y186002D01*
X660836Y185805D01*
X660836D01*
X660836D01*
X661165Y185870D01*
X661828Y186002D01*
X662668Y186563D01*
Y186563D01*
X662668D01*
X662854Y186842D01*
X663229Y187403D01*
Y187403D01*
X663318Y187618D01*
X664162Y188462D01*
X665264Y188918D01*
X666456D01*
X667558Y188462D01*
D02*
G37*
G36*
X676068Y48262D02*
X676912Y47418D01*
X677368Y46316D01*
Y45124D01*
X676912Y44022D01*
X676068Y43178D01*
X674966Y42722D01*
X673774D01*
X672672Y43178D01*
X671828Y44022D01*
X671422Y45003D01*
Y46437D01*
X671828Y47418D01*
X672672Y48262D01*
X673774Y48718D01*
X674966D01*
X676068Y48262D01*
D02*
G37*
%LPC*%
G36*
X566552Y191208D02*
X564328D01*
X562275Y190357D01*
X560703Y188785D01*
X559852Y186731D01*
Y184508D01*
X560703Y182455D01*
X562275Y180883D01*
X564328Y180032D01*
X566552D01*
X568605Y180883D01*
X570177Y182455D01*
X571028Y184508D01*
Y186731D01*
X570177Y188785D01*
X568605Y190357D01*
X566552Y191208D01*
D02*
G37*
G36*
X617551Y191008D02*
X615328D01*
X613275Y190157D01*
X611703Y188585D01*
X610852Y186532D01*
Y184308D01*
X611703Y182255D01*
X613275Y180683D01*
X615328Y179832D01*
X617551D01*
X619605Y180683D01*
X621177Y182255D01*
X622028Y184308D01*
Y186532D01*
X621177Y188585D01*
X619605Y190157D01*
X617551Y191008D01*
D02*
G37*
G36*
X600551D02*
X598329D01*
X596275Y190157D01*
X594703Y188585D01*
X593852Y186532D01*
Y184308D01*
X594703Y182255D01*
X596275Y180683D01*
X598329Y179832D01*
X600551D01*
X602605Y180683D01*
X604177Y182255D01*
X605028Y184308D01*
Y186532D01*
X604177Y188585D01*
X602605Y190157D01*
X600551Y191008D01*
D02*
G37*
G36*
X583551D02*
X581329D01*
X579275Y190157D01*
X577703Y188585D01*
X576852Y186532D01*
Y184308D01*
X577703Y182255D01*
X579275Y180683D01*
X581329Y179832D01*
X583551D01*
X585605Y180683D01*
X587177Y182255D01*
X588028Y184308D01*
Y186532D01*
X587177Y188585D01*
X585605Y190157D01*
X583551Y191008D01*
D02*
G37*
G36*
X549752D02*
X547528D01*
X545475Y190157D01*
X543903Y188585D01*
X543052Y186532D01*
Y184308D01*
X543903Y182255D01*
X545475Y180683D01*
X547528Y179832D01*
X549752D01*
X551805Y180683D01*
X553377Y182255D01*
X554228Y184308D01*
Y186532D01*
X553377Y188585D01*
X551805Y190157D01*
X549752Y191008D01*
D02*
G37*
G36*
X506572Y185928D02*
X504348D01*
X502295Y185077D01*
X500723Y183505D01*
X499872Y181451D01*
Y179228D01*
X499961Y179013D01*
X498795Y177847D01*
X497682Y178308D01*
X495458D01*
X493405Y177457D01*
X491833Y175885D01*
X490982Y173832D01*
Y171609D01*
X491833Y169555D01*
X493405Y167983D01*
X495458Y167132D01*
X497682D01*
X499735Y167983D01*
X501307Y169555D01*
X502158Y171609D01*
Y173832D01*
X502069Y174047D01*
X503235Y175213D01*
X504348Y174752D01*
X506572D01*
X508625Y175603D01*
X510197Y177175D01*
X511048Y179228D01*
Y181451D01*
X510197Y183505D01*
X508625Y185077D01*
X506572Y185928D01*
D02*
G37*
G36*
X626460Y180848D02*
X624236D01*
X622183Y179997D01*
X620611Y178425D01*
X619760Y176371D01*
Y174149D01*
X620611Y172095D01*
X622183Y170523D01*
X624236Y169672D01*
X626460D01*
X628513Y170523D01*
X630085Y172095D01*
X630936Y174149D01*
Y176371D01*
X630085Y178425D01*
X628513Y179997D01*
X626460Y180848D01*
D02*
G37*
G36*
X609441D02*
X607219D01*
X605165Y179997D01*
X603593Y178425D01*
X602742Y176371D01*
Y174149D01*
X603593Y172095D01*
X605165Y170523D01*
X607219Y169672D01*
X609441D01*
X611495Y170523D01*
X613067Y172095D01*
X613918Y174149D01*
Y176371D01*
X613067Y178425D01*
X611495Y179997D01*
X609441Y180848D01*
D02*
G37*
G36*
X592441D02*
X590219D01*
X588165Y179997D01*
X586593Y178425D01*
X585742Y176371D01*
Y174149D01*
X586593Y172095D01*
X588165Y170523D01*
X590219Y169672D01*
X592441D01*
X594495Y170523D01*
X596067Y172095D01*
X596918Y174149D01*
Y176371D01*
X596067Y178425D01*
X594495Y179997D01*
X592441Y180848D01*
D02*
G37*
G36*
X575442D02*
X573218D01*
X571165Y179997D01*
X569593Y178425D01*
X568742Y176371D01*
Y174149D01*
X569593Y172095D01*
X571165Y170523D01*
X573218Y169672D01*
X575442D01*
X577495Y170523D01*
X579067Y172095D01*
X579918Y174149D01*
Y176371D01*
X579067Y178425D01*
X577495Y179997D01*
X575442Y180848D01*
D02*
G37*
G36*
X558642D02*
X556418D01*
X554365Y179997D01*
X552793Y178425D01*
X551942Y176371D01*
Y174149D01*
X552793Y172095D01*
X554365Y170523D01*
X556418Y169672D01*
X558642D01*
X560695Y170523D01*
X562267Y172095D01*
X563118Y174149D01*
Y176371D01*
X562267Y178425D01*
X560695Y179997D01*
X558642Y180848D01*
D02*
G37*
G36*
X512921Y170942D02*
X510699D01*
X508645Y170091D01*
X507073Y168519D01*
X506222Y166465D01*
Y164242D01*
X507073Y162189D01*
X508645Y160617D01*
X510699Y159766D01*
X512921D01*
X514975Y160617D01*
X516547Y162189D01*
X517398Y164242D01*
Y166465D01*
X516547Y168519D01*
X514975Y170091D01*
X512921Y170942D01*
D02*
G37*
G36*
X437229Y157480D02*
X435006D01*
X432953Y156629D01*
X431381Y155057D01*
X430530Y153004D01*
Y150780D01*
X431381Y148727D01*
X432953Y147155D01*
X435006Y146304D01*
X437229D01*
X439283Y147155D01*
X440855Y148727D01*
X441706Y150780D01*
Y153004D01*
X440855Y155057D01*
X439283Y156629D01*
X437229Y157480D01*
D02*
G37*
G36*
X435605Y144555D02*
X433583D01*
X431716Y143782D01*
X430287Y142353D01*
X429514Y140486D01*
Y138465D01*
X430287Y136598D01*
X431474Y135411D01*
X430287Y134225D01*
X429514Y132358D01*
Y130337D01*
X430287Y128470D01*
X431716Y127041D01*
X433583Y126267D01*
X435605D01*
X437472Y127041D01*
X438901Y128470D01*
X439674Y130337D01*
Y132358D01*
X438901Y134225D01*
X437714Y135411D01*
X438901Y136598D01*
X439674Y138465D01*
Y140486D01*
X438901Y142353D01*
X437472Y143782D01*
X435605Y144555D01*
D02*
G37*
G36*
X507486Y135890D02*
X505466D01*
X503598Y135117D01*
X502169Y133688D01*
X501396Y131820D01*
Y129799D01*
X502169Y127932D01*
X503598Y126503D01*
X505466Y125730D01*
X507486D01*
X509354Y126503D01*
X510783Y127932D01*
X511556Y129799D01*
Y131820D01*
X510783Y133688D01*
X509354Y135117D01*
X507486Y135890D01*
D02*
G37*
G36*
X407511Y119888D02*
X405289D01*
X403235Y119037D01*
X401663Y117465D01*
X400812Y115412D01*
Y113188D01*
X401663Y111135D01*
X403235Y109563D01*
X405289Y108712D01*
X407511D01*
X409565Y109563D01*
X411137Y111135D01*
X411988Y113188D01*
Y115412D01*
X411137Y117465D01*
X409565Y119037D01*
X407511Y119888D01*
D02*
G37*
G36*
X506725Y115824D02*
X504703D01*
X502836Y115051D01*
X501407Y113622D01*
X500634Y111755D01*
Y109733D01*
X501407Y107866D01*
X502836Y106437D01*
X504703Y105664D01*
X506725D01*
X508592Y106437D01*
X510021Y107866D01*
X510794Y109733D01*
Y111755D01*
X510021Y113622D01*
X508592Y115051D01*
X506725Y115824D01*
D02*
G37*
G36*
X442309Y108485D02*
X440087D01*
X438033Y107634D01*
X436461Y106062D01*
X435610Y104008D01*
Y101785D01*
X436461Y99732D01*
X438033Y98160D01*
X440087Y97309D01*
X442309D01*
X444363Y98160D01*
X445935Y99732D01*
X446786Y101785D01*
Y104008D01*
X445935Y106062D01*
X444363Y107634D01*
X442309Y108485D01*
D02*
G37*
G36*
X526892Y97028D02*
X524669D01*
X522615Y96177D01*
X521043Y94605D01*
X520192Y92551D01*
Y90329D01*
X521043Y88275D01*
X522615Y86703D01*
X524669Y85852D01*
X526892D01*
X528945Y86703D01*
X530517Y88275D01*
X531368Y90329D01*
Y92551D01*
X530517Y94605D01*
X528945Y96177D01*
X526892Y97028D01*
D02*
G37*
G36*
X486251D02*
X484029D01*
X481975Y96177D01*
X480403Y94605D01*
X479552Y92551D01*
Y90329D01*
X480403Y88275D01*
X481975Y86703D01*
X484029Y85852D01*
X486251D01*
X488305Y86703D01*
X489877Y88275D01*
X490728Y90329D01*
Y92551D01*
X489877Y94605D01*
X488305Y96177D01*
X486251Y97028D01*
D02*
G37*
G36*
X617841Y89408D02*
X615619D01*
X613565Y88557D01*
X611993Y86985D01*
X611142Y84931D01*
Y82709D01*
X611993Y80655D01*
X613565Y79083D01*
X615619Y78232D01*
X617841D01*
X619895Y79083D01*
X621467Y80655D01*
X622318Y82709D01*
Y84931D01*
X621467Y86985D01*
X619895Y88557D01*
X617841Y89408D01*
D02*
G37*
G36*
X600841D02*
X598619D01*
X596565Y88557D01*
X594993Y86985D01*
X594142Y84931D01*
Y82709D01*
X594993Y80655D01*
X596565Y79083D01*
X598619Y78232D01*
X600841D01*
X602895Y79083D01*
X604467Y80655D01*
X605318Y82709D01*
Y84931D01*
X604467Y86985D01*
X602895Y88557D01*
X600841Y89408D01*
D02*
G37*
G36*
X583842D02*
X581618D01*
X579565Y88557D01*
X577993Y86985D01*
X577142Y84931D01*
Y82709D01*
X577993Y80655D01*
X579565Y79083D01*
X581618Y78232D01*
X583842D01*
X585895Y79083D01*
X587467Y80655D01*
X588318Y82709D01*
Y84931D01*
X587467Y86985D01*
X585895Y88557D01*
X583842Y89408D01*
D02*
G37*
G36*
X566842D02*
X564618D01*
X562565Y88557D01*
X560993Y86985D01*
X560142Y84931D01*
Y82709D01*
X560993Y80655D01*
X562565Y79083D01*
X564618Y78232D01*
X566842D01*
X568895Y79083D01*
X570467Y80655D01*
X571318Y82709D01*
Y84931D01*
X570467Y86985D01*
X568895Y88557D01*
X566842Y89408D01*
D02*
G37*
G36*
X549752D02*
X547528D01*
X545475Y88557D01*
X543903Y86985D01*
X543052Y84931D01*
Y82709D01*
X543903Y80655D01*
X545475Y79083D01*
X547528Y78232D01*
X549752D01*
X551805Y79083D01*
X553377Y80655D01*
X554228Y82709D01*
Y84931D01*
X553377Y86985D01*
X551805Y88557D01*
X549752Y89408D01*
D02*
G37*
G36*
X500221Y94488D02*
X497999D01*
X495945Y93637D01*
X494373Y92065D01*
X493522Y90012D01*
Y87788D01*
X494373Y85735D01*
X495945Y84163D01*
X496776Y83818D01*
X497877Y82961D01*
X497538Y81979D01*
X497078Y80868D01*
Y78644D01*
X497929Y76591D01*
X499501Y75019D01*
X501554Y74168D01*
X503778D01*
X505831Y75019D01*
X507403Y76591D01*
X508254Y78644D01*
Y80868D01*
X507403Y82921D01*
X505831Y84493D01*
X505000Y84838D01*
X503899Y85695D01*
X504238Y86677D01*
X504698Y87788D01*
Y90012D01*
X503847Y92065D01*
X502275Y93637D01*
X500221Y94488D01*
D02*
G37*
G36*
X609451Y76328D02*
X607229D01*
X605175Y75477D01*
X603603Y73905D01*
X602752Y71852D01*
Y69629D01*
X603603Y67575D01*
X605175Y66003D01*
X607229Y65152D01*
X609451D01*
X611505Y66003D01*
X613077Y67575D01*
X613928Y69629D01*
Y71852D01*
X613077Y73905D01*
X611505Y75477D01*
X609451Y76328D01*
D02*
G37*
G36*
X592452D02*
X590229D01*
X588175Y75477D01*
X586603Y73905D01*
X585752Y71852D01*
Y69629D01*
X586603Y67575D01*
X588175Y66003D01*
X590229Y65152D01*
X592452D01*
X594505Y66003D01*
X596077Y67575D01*
X596928Y69629D01*
Y71852D01*
X596077Y73905D01*
X594505Y75477D01*
X592452Y76328D01*
D02*
G37*
G36*
X575452D02*
X573228D01*
X571175Y75477D01*
X569603Y73905D01*
X568752Y71852D01*
Y69629D01*
X569603Y67575D01*
X571175Y66003D01*
X573228Y65152D01*
X575452D01*
X577505Y66003D01*
X579077Y67575D01*
X579928Y69629D01*
Y71852D01*
X579077Y73905D01*
X577505Y75477D01*
X575452Y76328D01*
D02*
G37*
G36*
X558451D02*
X556228D01*
X554175Y75477D01*
X552603Y73905D01*
X551752Y71852D01*
Y69629D01*
X552603Y67575D01*
X554175Y66003D01*
X556228Y65152D01*
X558451D01*
X560505Y66003D01*
X562077Y67575D01*
X562928Y69629D01*
Y71852D01*
X562077Y73905D01*
X560505Y75477D01*
X558451Y76328D01*
D02*
G37*
%LPD*%
D54*
X57150Y234950D02*
D03*
Y148550D02*
D03*
Y105450D02*
D03*
Y19050D02*
D03*
D55*
X17150Y234950D02*
D03*
Y148550D02*
D03*
Y105450D02*
D03*
Y19050D02*
D03*
D62*
X644359Y224088D02*
X653547D01*
X673988Y203647D01*
X644204Y224243D02*
X644359Y224088D01*
X643615Y224282D02*
X643890D01*
X644204Y224243D02*
Y224596D01*
X635194Y223714D02*
X643047D01*
X643615Y224282D01*
X635000Y223520D02*
X635194Y223714D01*
X673988Y64443D02*
Y203647D01*
X666242Y56697D02*
X673988Y64443D01*
X666242Y37116D02*
Y56697D01*
Y37116D02*
X673100Y30258D01*
Y12700D02*
Y30258D01*
D65*
X139700Y241300D02*
D03*
X88900D02*
D03*
X114300D02*
D03*
X165100D02*
D03*
X190500D02*
D03*
X215900D02*
D03*
X241300D02*
D03*
X266700D02*
D03*
X292100D02*
D03*
X317500D02*
D03*
X342900D02*
D03*
X368300D02*
D03*
X393700D02*
D03*
X419100D02*
D03*
X444500D02*
D03*
X469900D02*
D03*
X495300D02*
D03*
X520700D02*
D03*
X546100D02*
D03*
X571500D02*
D03*
X596900D02*
D03*
X622300D02*
D03*
X647700D02*
D03*
Y12700D02*
D03*
X88900D02*
D03*
X622300D02*
D03*
X190500D02*
D03*
X596900D02*
D03*
X571500D02*
D03*
X546100D02*
D03*
X520700D02*
D03*
X495300D02*
D03*
X469900D02*
D03*
X444500D02*
D03*
X419100D02*
D03*
X393700D02*
D03*
X368300D02*
D03*
X342900D02*
D03*
X317500D02*
D03*
X292100D02*
D03*
X266700D02*
D03*
X241300D02*
D03*
X215900D02*
D03*
X165100D02*
D03*
X139700D02*
D03*
X114300D02*
D03*
D66*
X93980Y127000D02*
D03*
X370840Y129540D02*
D03*
X93980Y114300D02*
D03*
D67*
X673100Y241300D02*
D03*
Y12700D02*
D03*
D68*
X358140Y129540D02*
D03*
D69*
X93980Y139700D02*
D03*
D70*
X184150Y193040D02*
D03*
X152400Y135382D02*
D03*
X84328Y193802D02*
D03*
X122682Y196469D02*
D03*
X486664Y172466D02*
D03*
X482854Y156972D02*
D03*
X165100Y40640D02*
D03*
X276860Y116586D02*
D03*
X266700D02*
D03*
X246380D02*
D03*
X256540D02*
D03*
X276860Y82550D02*
D03*
X267208Y100076D02*
D03*
X277368D02*
D03*
X257048D02*
D03*
X246888D02*
D03*
X266700Y82550D02*
D03*
X246380D02*
D03*
X256540D02*
D03*
X435610Y59690D02*
D03*
X128270Y175514D02*
D03*
X199644Y149352D02*
D03*
X197358Y157226D02*
D03*
X183134Y202184D02*
D03*
X174498Y191262D02*
D03*
X175006Y201676D02*
D03*
X163068Y137414D02*
D03*
X77926Y148082D02*
D03*
X72644Y228600D02*
D03*
X657860Y208280D02*
D03*
X665860Y185920D02*
D03*
Y178300D02*
D03*
X658630Y183260D02*
D03*
X665860Y169410D02*
D03*
Y135120D02*
D03*
Y144010D02*
D03*
Y127500D02*
D03*
Y161790D02*
D03*
Y152900D02*
D03*
X626110Y224790D02*
D03*
X627380Y154940D02*
D03*
X608330Y156210D02*
D03*
X375920Y218440D02*
D03*
X300990Y210820D02*
D03*
X519430Y190500D02*
D03*
X616712Y135128D02*
D03*
X600202D02*
D03*
X636270Y127000D02*
D03*
X580390Y143510D02*
D03*
Y127000D02*
D03*
X516636Y131064D02*
D03*
X317500Y132842D02*
D03*
X665860Y93210D02*
D03*
Y102100D02*
D03*
Y84320D02*
D03*
Y110990D02*
D03*
Y118610D02*
D03*
X635000Y110490D02*
D03*
X616712Y118618D02*
D03*
X608330Y99060D02*
D03*
X674370Y45720D02*
D03*
X665860Y76700D02*
D03*
X650740Y72010D02*
D03*
X665860Y67810D02*
D03*
X641850Y72010D02*
D03*
X599948Y118618D02*
D03*
X513842Y114808D02*
D03*
X580390Y110490D02*
D03*
X395350Y99950D02*
D03*
X316230Y99060D02*
D03*
X521970Y57150D02*
D03*
X406400Y60960D02*
D03*
X236220Y193040D02*
D03*
X172720Y227330D02*
D03*
X123190Y212090D02*
D03*
X120142Y204470D02*
D03*
X189230Y163830D02*
D03*
X238760Y148590D02*
D03*
X121666Y170688D02*
D03*
X95758Y212852D02*
D03*
X97282Y183896D02*
D03*
X117856Y179578D02*
D03*
X73914Y160020D02*
D03*
X238760Y132080D02*
D03*
X235204Y99822D02*
D03*
X121920Y104140D02*
D03*
X147320Y72390D02*
D03*
X180086Y41148D02*
D03*
X198882D02*
D03*
X137160Y72390D02*
D03*
X127000D02*
D03*
X119126Y72898D02*
D03*
X122936Y65786D02*
D03*
X119126Y45212D02*
D03*
X100628Y67818D02*
D03*
X81280Y104140D02*
D03*
X74930Y97790D02*
D03*
X101092Y45212D02*
D03*
X99060Y38100D02*
D03*
X76200Y30480D02*
D03*
X124460Y38100D02*
D03*
X203708Y211582D02*
D03*
X643890Y224282D02*
D03*
X625348Y175260D02*
D03*
X633476Y185166D02*
D03*
X223012Y225806D02*
D03*
X454152Y151892D02*
D03*
X477520Y149860D02*
D03*
X162392Y167218D02*
D03*
X502666Y79756D02*
D03*
X511810Y165354D02*
D03*
X201422Y127762D02*
D03*
X418338Y159766D02*
D03*
X426974Y161290D02*
D03*
X199390Y221996D02*
D03*
X93472Y194818D02*
D03*
X122682Y188341D02*
D03*
X436118Y151892D02*
D03*
X125677Y57746D02*
D03*
X126591Y49669D02*
D03*
X434594Y139475D02*
D03*
Y131347D02*
D03*
X506476Y130810D02*
D03*
X194056Y47752D02*
D03*
X185928D02*
D03*
X505714Y110744D02*
D03*
X441198Y102897D02*
D03*
X455930Y95504D02*
D03*
X406400Y114300D02*
D03*
X214065Y179070D02*
D03*
X496570Y172720D02*
D03*
X505460Y180340D02*
D03*
X525780Y91440D02*
D03*
X485140D02*
D03*
X499110Y88900D02*
D03*
X436880Y72390D02*
D03*
X474980Y57150D02*
D03*
X635000Y223520D02*
D03*
X468630Y181610D02*
D03*
X548640Y185420D02*
D03*
Y83820D02*
D03*
X599440Y185420D02*
D03*
X582440D02*
D03*
X565440Y185620D02*
D03*
X616440Y185420D02*
D03*
X565730Y83820D02*
D03*
X582730D02*
D03*
X633730D02*
D03*
X599730D02*
D03*
X616730D02*
D03*
X625340Y70740D02*
D03*
X608340D02*
D03*
X591340D02*
D03*
X574340D02*
D03*
X557340D02*
D03*
X557530Y175260D02*
D03*
X574330D02*
D03*
X591330D02*
D03*
X608330D02*
D03*
D71*
X165100Y40640D02*
X175260Y30480D01*
X247650D01*
X643890Y219710D02*
Y224282D01*
X644204Y224596D02*
X646534Y226926D01*
X631952Y207772D02*
X643890Y219710D01*
X646534Y226926D02*
Y240134D01*
X647700Y241300D01*
X370840Y153077D02*
X399372Y181610D01*
X370840Y129540D02*
Y153077D01*
X399372Y181610D02*
X468630D01*
X302768D02*
X399372D01*
X229616Y225806D02*
X251714Y203708D01*
X223012Y225806D02*
X229616D01*
X214021Y203708D02*
X251714D01*
X280670D01*
X468630Y181610D02*
Y181610D01*
X466598Y179578D02*
X468630Y181610D01*
X466598Y79248D02*
Y179578D01*
X459740Y72390D02*
X466598Y79248D01*
X459740Y72390D02*
X474980Y57150D01*
X436880Y72390D02*
X459740D01*
X280670Y203708D02*
X302768Y181610D01*
X178562Y150622D02*
X201422Y127762D01*
X178562Y168249D02*
X214021Y203708D01*
X178562Y150622D02*
Y168249D01*
X494792Y207772D02*
X631952D01*
X468630Y181610D02*
X494792Y207772D01*
X247650Y30480D02*
X287528Y70358D01*
Y85445D01*
X313767Y111683D01*
X340283D01*
X358140Y129540D01*
M02*
