G04*
G04 #@! TF.GenerationSoftware,Altium Limited,Altium Designer,26.1.1 (7)*
G04*
G04 Layer_Color=16711935*
%FSLAX44Y44*%
%MOMM*%
G71*
G04*
G04 #@! TF.SameCoordinates,F0D65C84-A3F1-487F-912E-D9069717FDA7*
G04*
G04*
G04 #@! TF.FilePolarity,Negative*
G04*
G01*
G75*
%ADD51C,1.7272*%
%ADD52C,1.1176*%
%ADD53R,1.7272X1.7272*%
G04:AMPARAMS|DCode=54|XSize=1mm|YSize=1.8mm|CornerRadius=0.5mm|HoleSize=0mm|Usage=FLASHONLY|Rotation=270.000|XOffset=0mm|YOffset=0mm|HoleType=Round|Shape=RoundedRectangle|*
%AMROUNDEDRECTD54*
21,1,1.0000,0.8000,0,0,270.0*
21,1,0.0000,1.8000,0,0,270.0*
1,1,1.0000,-0.4000,0.0000*
1,1,1.0000,-0.4000,0.0000*
1,1,1.0000,0.4000,0.0000*
1,1,1.0000,0.4000,0.0000*
%
%ADD54ROUNDEDRECTD54*%
G04:AMPARAMS|DCode=55|XSize=1mm|YSize=2.2mm|CornerRadius=0.5mm|HoleSize=0mm|Usage=FLASHONLY|Rotation=270.000|XOffset=0mm|YOffset=0mm|HoleType=Round|Shape=RoundedRectangle|*
%AMROUNDEDRECTD55*
21,1,1.0000,1.2000,0,0,270.0*
21,1,0.0000,2.2000,0,0,270.0*
1,1,1.0000,-0.6000,0.0000*
1,1,1.0000,-0.6000,0.0000*
1,1,1.0000,0.6000,0.0000*
1,1,1.0000,0.6000,0.0000*
%
%ADD55ROUNDEDRECTD55*%
%ADD56R,1.1176X1.1176*%
%ADD57R,1.1176X1.1176*%
D51*
X139700Y241300D02*
D03*
X88900D02*
D03*
X114300D02*
D03*
X165100D02*
D03*
X190500D02*
D03*
X215900D02*
D03*
X241300D02*
D03*
X266700D02*
D03*
X292100D02*
D03*
X317500D02*
D03*
X342900D02*
D03*
X368300D02*
D03*
X393700D02*
D03*
X419100D02*
D03*
X444500D02*
D03*
X469900D02*
D03*
X495300D02*
D03*
X520700D02*
D03*
X546100D02*
D03*
X571500D02*
D03*
X596900D02*
D03*
X622300D02*
D03*
X647700D02*
D03*
Y12700D02*
D03*
X88900D02*
D03*
X622300D02*
D03*
X190500D02*
D03*
X596900D02*
D03*
X571500D02*
D03*
X546100D02*
D03*
X520700D02*
D03*
X495300D02*
D03*
X469900D02*
D03*
X444500D02*
D03*
X419100D02*
D03*
X393700D02*
D03*
X368300D02*
D03*
X342900D02*
D03*
X317500D02*
D03*
X292100D02*
D03*
X266700D02*
D03*
X241300D02*
D03*
X215900D02*
D03*
X165100D02*
D03*
X139700D02*
D03*
X114300D02*
D03*
D52*
X93980Y127000D02*
D03*
X370840Y129540D02*
D03*
X93980Y114300D02*
D03*
D53*
X673100Y241300D02*
D03*
Y12700D02*
D03*
D54*
X57150Y234950D02*
D03*
Y148550D02*
D03*
Y105450D02*
D03*
Y19050D02*
D03*
D55*
X17150Y234950D02*
D03*
Y148550D02*
D03*
Y105450D02*
D03*
Y19050D02*
D03*
D56*
X358140Y129540D02*
D03*
D57*
X93980Y139700D02*
D03*
M02*
