M48
;Layer_Color=9474304
;FILE_FORMAT=2:5
INCH,LZ
;TYPE=PLATED
T01F00S00C0.01200
T03F00S00C0.02800
T04F00S00C0.04000
%
T01
X003Y0012
X0039Y0015
X00398Y00178
X00469
X0049839Y0019555
X0049479Y0022735
X00484Y00259
X005Y00285
X00469Y00287
X0054Y00285
X0058
X0065Y0016
X00709Y00162
X00732Y00188
X00764
X00783Y00162
X0049Y0015
X0039617Y00267
X0032Y0041
X00295Y00385
X003068Y00583
X00291Y0063
X00332Y00763
X00368Y00767
X00383Y00724
X00464Y00707
X00479Y00672
X00505Y00691
X00483Y007415
Y007735
X00473Y00805
X00485Y00835
X00377Y00838
X00286Y009
X0068Y00895
X00689Y00794
X00721Y00796
X00725Y0076
X00687Y00753
X0063934Y0065834
X00745Y00645
X00777Y00619
X00786Y00588
X00793Y00503
X00642Y00541
X006Y00533
X0048Y0041
X00926Y00393
X0093Y0076
X0084277Y00705
X00802Y00833
X00785Y00874
X00878Y00889
X01185Y0083
X0148Y0086
X01647Y00629
X01681Y00635
X01717Y00598
X01711Y0054912
Y0051711
X01737Y0040511
X01795Y00376
X0191Y0036
X01965Y0035
X01979Y00314
X01991Y00436
X02023Y00452
X02034Y00516
X01994Y00515
X02015Y00651
X0199Y0071
X01955Y0068
X01916Y00679
X01901Y00618
X0188Y0059
X01788Y00598
X01845Y00715
X02045Y0075
X0216Y0073
X0222614Y0073079
X0229307Y0073
X0236
X0242693
X02494Y00729
X02462Y0069
X02395
X0232807
X0226114
X02195
X02285Y00565
Y005
Y00435
X02362Y00467
X02363Y00532
X02428
Y00467
X02395Y0039
X0242807Y0033
X02495
X0246197Y002785
X0239504
X0232811
X0226118
X0219425
X0222728Y0033
X0229421
X0236114
X0216
X0207Y0036
X02055Y00225
X0187
X01715Y00235
X0172Y00285
X016Y0024
X015565Y003935
X016Y0045
X01245Y0039
X0125Y00523
X0109Y00459
X0105
X0101
X0097
X00972Y00394
X01012
X01052
X01092
X0109Y00325
X0105
X0101
X0097
X0094Y0052
Y00585
X02395Y00615
X0247Y0061
X02465Y00885
X025Y0088
X02535Y00883
X0259Y0082
X0259303Y007215
X026215Y0073197
Y0070197
Y0066697
Y0063697
Y0060197
Y0056697
Y0053197
Y0050197
Y0046697
Y0043697
Y0040197
Y0036697
Y0033197
Y0030197
Y0026697
X0256197Y002835
X0252697
X025Y00435
X02505Y005
X02655Y0018
T03
X0037Y0045
Y005
Y0055
X0141Y0051
X0146
T04
X0035Y0005
X0045
X0055
X0065
X0075
X0085
X0095
X0105
X0115
X0125
X0135
X0145
X0155
X0165
X0175
X0185
X0195
X0205
X0215
X0225
X0235
X0245
X0255
X0265
Y0095
X0255
X0245
X0235
X0225
X0215
X0205
X0195
X0185
X0175
X0165
X0155
X0145
X0135
X0125
X0115
X0105
X0095
X0085
X0075
X0065
X0055
X0045
X0035
M30
